<svg version="1.1" xmlns="http://www.w3.org/2000/svg" xmlns:xlink="http://www.w3.org/1999/xlink" width="800" height="600" style="width: 800px; height: 600px;"><defs><clipPath id="wCZemLyRqWft"><path fill="none" stroke="none" d=" M 61 5 L 770 5 L 770 577 L 61 577 L 61 5 Z"/></clipPath><clipPath id="dvmxUGIWSwxk"><path fill="none" stroke="none" d=" M 61 5 L 770 5 L 770 577 L 61 577 L 61 5 Z"/></clipPath><clipPath id="WmIPgCtTUqFd"><path fill="none" stroke="none" d=" M 61 5 L 770 5 L 770 577 L 61 577 L 61 5 Z"/></clipPath><clipPath id="oyZFnhlXFQmL"><path fill="none" stroke="none" d=" M 61 5 L 770 5 L 770 577 L 61 577 L 61 5 Z"/></clipPath><clipPath id="ItMNnfvavsaN"><path fill="none" stroke="none" d=" M 61 5 L 770 5 L 770 577 L 61 577 L 61 5 Z"/></clipPath><clipPath id="inybUqxDKaMF"><path fill="none" stroke="none" d=" M 61 5 L 770 5 L 770 577 L 61 577 L 61 5 Z"/></clipPath><clipPath id="sGBDqFsfXTqp"><path fill="none" stroke="none" d=" M 61 5 L 770 5 L 770 577 L 61 577 L 61 5 Z"/></clipPath><clipPath id="VABCTpfJpJeU"><path fill="none" stroke="none" d=" M 61 5 L 770 5 L 770 577 L 61 577 L 61 5 Z"/></clipPath><clipPath id="OvdURxcEGCLc"><path fill="none" stroke="none" d=" M 61 5 L 770 5 L 770 577 L 61 577 L 61 5 Z"/></clipPath><clipPath id="cJKiOubgUbIv"><path fill="none" stroke="none" d=" M 61 5 L 770 5 L 770 577 L 61 577 L 61 5 Z"/></clipPath><clipPath id="TSRNnvJoVwGe"><path fill="none" stroke="none" d=" M 61 5 L 770 5 L 770 577 L 61 577 L 61 5 Z"/></clipPath><clipPath id="bDdhODloEfTO"><path fill="none" stroke="none" d=" M 61 5 L 770 5 L 770 577 L 61 577 L 61 5 Z"/></clipPath><clipPath id="rSlUcxEoTThM"><path fill="none" stroke="none" d=" M 61 5 L 770 5 L 770 577 L 61 577 L 61 5 Z"/></clipPath><clipPath id="lKseJVqJfokS"><path fill="none" stroke="none" d=" M 61 5 L 770 5 L 770 577 L 61 577 L 61 5 Z"/></clipPath></defs><g><g transform="scale(1,1) translate(0.5,0.5)"><rect fill="#FFFFFF" stroke="none" x="0" y="0" width="800" height="600"/><rect fill="#ffffff" stroke="none" x="0" y="0" width="800" height="600"/><rect fill="#FFFFFF" stroke="none" x="61" y="5" width="709" height="572"/><rect fill="#ffffff" stroke="none" x="61" y="5" width="709" height="572"/><g><rect fill="none" stroke="#e5e5e5" x="61" y="5" width="709" height="572" stroke-linejoin="bevel" stroke-miterlimit="10"/></g><g clip-path="url(#wCZemLyRqWft)"><g><g><path fill="none" stroke="#e5e5e5" paint-order="fill stroke markers" d=" M 169 577 L 169 5" stroke-linejoin="bevel" stroke-miterlimit="10"/><path fill="none" stroke="#e5e5e5" paint-order="fill stroke markers" d=" M 283 577 L 283 5" stroke-linejoin="bevel" stroke-miterlimit="10"/><path fill="none" stroke="#e5e5e5" paint-order="fill stroke markers" d=" M 397 577 L 397 5" stroke-linejoin="bevel" stroke-miterlimit="10"/><path fill="none" stroke="#e5e5e5" paint-order="fill stroke markers" d=" M 511 577 L 511 5" stroke-linejoin="bevel" stroke-miterlimit="10"/><path fill="none" stroke="#e5e5e5" paint-order="fill stroke markers" d=" M 626 577 L 626 5" stroke-linejoin="bevel" stroke-miterlimit="10"/><path fill="none" stroke="#e5e5e5" paint-order="fill stroke markers" d=" M 740 577 L 740 5" stroke-linejoin="bevel" stroke-miterlimit="10"/></g></g></g><g clip-path="url(#dvmxUGIWSwxk)"><g><g><path fill="none" stroke="#e5e5e5" paint-order="fill stroke markers" d=" M 61 551 L 770 551" stroke-linejoin="bevel" stroke-miterlimit="10"/><path fill="none" stroke="#e5e5e5" paint-order="fill stroke markers" d=" M 61 447 L 770 447" stroke-linejoin="bevel" stroke-miterlimit="10"/><path fill="none" stroke="#e5e5e5" paint-order="fill stroke markers" d=" M 61 343 L 770 343" stroke-linejoin="bevel" stroke-miterlimit="10"/><path fill="none" stroke="#e5e5e5" paint-order="fill stroke markers" d=" M 61 239 L 770 239" stroke-linejoin="bevel" stroke-miterlimit="10"/><path fill="none" stroke="#e5e5e5" paint-order="fill stroke markers" d=" M 61 135 L 770 135" stroke-linejoin="bevel" stroke-miterlimit="10"/><path fill="none" stroke="#e5e5e5" paint-order="fill stroke markers" d=" M 61 31 L 770 31" stroke-linejoin="bevel" stroke-miterlimit="10"/></g></g></g><g clip-path="url(#WmIPgCtTUqFd)"><g><g><path fill="none" stroke="none"/><path fill="none" stroke="#404387" paint-order="fill stroke markers" d=" M 93.22727272727273 550.9999999999999 L 624.7977393040195 523.6315789473574 L 522.8687122851841 496.26315789481885 L 477.0567760039031 468.8947368419683 L 450.9932074126193 441.5263157896378 L 434.14869590325435 414.1578947367873 L 422.43950363016614 386.7894736844567 L 414.313880269309 359.42105263160624 L 409.02788762146895 332.05263157875567 L 405.9645694793113 304.68421052642515 L 404.6074290391035 277.3157894735747 L 404.4629013349779 249.9473684212441 L 405.2604559664963 222.57894736839359 L 406.70654908739124 195.21052631554306 L 408.58230813839407 167.8421052632125 L 410.7827036699228 140.47368421036197 L 413.12044540475097 113.10526315803145 L 415.79090280853455 85.73684210518093 L 418.47205085559335 58.36842105285035 L 421.2133439720709 30.999999999999886" stroke-linejoin="bevel" stroke-miterlimit="10" stroke-width="2"/></g></g></g><g clip-path="url(#oyZFnhlXFQmL)"><g><g><path fill="none" stroke="none"/><path fill="#404387" stroke="#404387" paint-order="fill stroke markers" d=" M 96.22727272727273 550.9999999999999 A 3 3 0 1 1 96.22727122727287 550.9970000004998" stroke-linejoin="bevel" stroke-miterlimit="10"/><path fill="#404387" stroke="#404387" paint-order="fill stroke markers" d=" M 627.7977393040195 523.6315789473574 A 3 3 0 1 1 627.7977378040197 523.6285789478574" stroke-linejoin="bevel" stroke-miterlimit="10"/><path fill="#404387" stroke="#404387" paint-order="fill stroke markers" d=" M 525.8687122851841 496.26315789481885 A 3 3 0 1 1 525.8687107851842 496.26015789531886" stroke-linejoin="bevel" stroke-miterlimit="10"/><path fill="#404387" stroke="#404387" paint-order="fill stroke markers" d=" M 480.0567760039031 468.8947368419683 A 3 3 0 1 1 480.0567745039032 468.89173684246833" stroke-linejoin="bevel" stroke-miterlimit="10"/><path fill="#404387" stroke="#404387" paint-order="fill stroke markers" d=" M 453.9932074126193 441.5263157896378 A 3 3 0 1 1 453.99320591261943 441.5233157901378" stroke-linejoin="bevel" stroke-miterlimit="10"/><path fill="#404387" stroke="#404387" paint-order="fill stroke markers" d=" M 437.14869590325435 414.1578947367873 A 3 3 0 1 1 437.14869440325447 414.1548947372873" stroke-linejoin="bevel" stroke-miterlimit="10"/><path fill="#404387" stroke="#404387" paint-order="fill stroke markers" d=" M 425.43950363016614 386.7894736844567 A 3 3 0 1 1 425.43950213016626 386.7864736849567" stroke-linejoin="bevel" stroke-miterlimit="10"/><path fill="#404387" stroke="#404387" paint-order="fill stroke markers" d=" M 417.313880269309 359.42105263160624 A 3 3 0 1 1 417.3138787693091 359.41805263210625" stroke-linejoin="bevel" stroke-miterlimit="10"/><path fill="#404387" stroke="#404387" paint-order="fill stroke markers" d=" M 412.02788762146895 332.05263157875567 A 3 3 0 1 1 412.02788612146907 332.0496315792557" stroke-linejoin="bevel" stroke-miterlimit="10"/><path fill="#404387" stroke="#404387" paint-order="fill stroke markers" d=" M 408.9645694793113 304.68421052642515 A 3 3 0 1 1 408.9645679793114 304.68121052692516" stroke-linejoin="bevel" stroke-miterlimit="10"/><path fill="#404387" stroke="#404387" paint-order="fill stroke markers" d=" M 407.6074290391035 277.3157894735747 A 3 3 0 1 1 407.60742753910364 277.3127894740747" stroke-linejoin="bevel" stroke-miterlimit="10"/><path fill="#404387" stroke="#404387" paint-order="fill stroke markers" d=" M 407.4629013349779 249.9473684212441 A 3 3 0 1 1 407.46289983497803 249.94436842174412" stroke-linejoin="bevel" stroke-miterlimit="10"/><path fill="#404387" stroke="#404387" paint-order="fill stroke markers" d=" M 408.2604559664963 222.57894736839359 A 3 3 0 1 1 408.2604544664964 222.5759473688936" stroke-linejoin="bevel" stroke-miterlimit="10"/><path fill="#404387" stroke="#404387" paint-order="fill stroke markers" d=" M 409.70654908739124 195.21052631554306 A 3 3 0 1 1 409.70654758739136 195.20752631604307" stroke-linejoin="bevel" stroke-miterlimit="10"/><path fill="#404387" stroke="#404387" paint-order="fill stroke markers" d=" M 411.58230813839407 167.8421052632125 A 3 3 0 1 1 411.5823066383942 167.8391052637125" stroke-linejoin="bevel" stroke-miterlimit="10"/><path fill="#404387" stroke="#404387" paint-order="fill stroke markers" d=" M 413.7827036699228 140.47368421036197 A 3 3 0 1 1 413.7827021699229 140.47068421086198" stroke-linejoin="bevel" stroke-miterlimit="10"/><path fill="#404387" stroke="#404387" paint-order="fill stroke markers" d=" M 416.12044540475097 113.10526315803145 A 3 3 0 1 1 416.1204439047511 113.10226315853144" stroke-linejoin="bevel" stroke-miterlimit="10"/><path fill="#404387" stroke="#404387" paint-order="fill stroke markers" d=" M 418.79090280853455 85.73684210518093 A 3 3 0 1 1 418.79090130853467 85.73384210568092" stroke-linejoin="bevel" stroke-miterlimit="10"/><path fill="#404387" stroke="#404387" paint-order="fill stroke markers" d=" M 421.47205085559335 58.36842105285035 A 3 3 0 1 1 421.47204935559347 58.36542105335035" stroke-linejoin="bevel" stroke-miterlimit="10"/><path fill="#404387" stroke="#404387" paint-order="fill stroke markers" d=" M 424.2133439720709 30.999999999999886 A 3 3 0 1 1 424.213342472071 30.997000000499884" stroke-linejoin="bevel" stroke-miterlimit="10"/></g></g></g><g clip-path="url(#ItMNnfvavsaN)"><g><g><path fill="none" stroke="none"/><path fill="none" stroke="#29788E" paint-order="fill stroke markers" d=" M 106.62587574766233 550.9999999999999 L 668.2123382746776 523.6315789473574 L 550.5117779082505 496.26315789481885 L 496.96805830005366 468.8947368419683 L 466.77808973059837 441.5263157896378 L 447.8392479326749 414.1578947367873 L 435.0208402138077 386.7894736844567 L 426.1871045499029 359.42105263160624 L 420.45169684468306 332.05263157875567 L 417.20165968104646 304.68421052642515 L 415.8215057950095 277.3157894735747 L 415.824525289675 249.9473684212441 L 416.77125927926323 222.57894736839359 L 418.4807012997704 195.21052631554306 L 420.58683963295636 167.8421052632125 L 422.9608153037708 140.47368421036197 L 425.52134678013647 113.10526315803145 L 428.3442478605471 85.73684210518093 L 431.0424519720678 58.36842105285035 L 433.9751973719325 30.999999999999886" stroke-linejoin="bevel" stroke-miterlimit="10" stroke-width="2"/></g></g></g><g clip-path="url(#inybUqxDKaMF)"><g><g><path fill="none" stroke="none"/><path fill="#29788E" stroke="#29788E" paint-order="fill stroke markers" d=" M 109.62587574766233 550.9999999999999 A 3 3 0 1 1 109.62587424766247 550.9970000004998" stroke-linejoin="bevel" stroke-miterlimit="10"/><path fill="#29788E" stroke="#29788E" paint-order="fill stroke markers" d=" M 671.2123382746776 523.6315789473574 A 3 3 0 1 1 671.2123367746777 523.6285789478574" stroke-linejoin="bevel" stroke-miterlimit="10"/><path fill="#29788E" stroke="#29788E" paint-order="fill stroke markers" d=" M 553.5117779082505 496.26315789481885 A 3 3 0 1 1 553.5117764082506 496.26015789531886" stroke-linejoin="bevel" stroke-miterlimit="10"/><path fill="#29788E" stroke="#29788E" paint-order="fill stroke markers" d=" M 499.96805830005366 468.8947368419683 A 3 3 0 1 1 499.9680568000538 468.89173684246833" stroke-linejoin="bevel" stroke-miterlimit="10"/><path fill="#29788E" stroke="#29788E" paint-order="fill stroke markers" d=" M 469.77808973059837 441.5263157896378 A 3 3 0 1 1 469.7780882305985 441.5233157901378" stroke-linejoin="bevel" stroke-miterlimit="10"/><path fill="#29788E" stroke="#29788E" paint-order="fill stroke markers" d=" M 450.8392479326749 414.1578947367873 A 3 3 0 1 1 450.839246432675 414.1548947372873" stroke-linejoin="bevel" stroke-miterlimit="10"/><path fill="#29788E" stroke="#29788E" paint-order="fill stroke markers" d=" M 438.0208402138077 386.7894736844567 A 3 3 0 1 1 438.0208387138078 386.7864736849567" stroke-linejoin="bevel" stroke-miterlimit="10"/><path fill="#29788E" stroke="#29788E" paint-order="fill stroke markers" d=" M 429.1871045499029 359.42105263160624 A 3 3 0 1 1 429.18710304990304 359.41805263210625" stroke-linejoin="bevel" stroke-miterlimit="10"/><path fill="#29788E" stroke="#29788E" paint-order="fill stroke markers" d=" M 423.45169684468306 332.05263157875567 A 3 3 0 1 1 423.4516953446832 332.0496315792557" stroke-linejoin="bevel" stroke-miterlimit="10"/><path fill="#29788E" stroke="#29788E" paint-order="fill stroke markers" d=" M 420.20165968104646 304.68421052642515 A 3 3 0 1 1 420.2016581810466 304.68121052692516" stroke-linejoin="bevel" stroke-miterlimit="10"/><path fill="#29788E" stroke="#29788E" paint-order="fill stroke markers" d=" M 418.8215057950095 277.3157894735747 A 3 3 0 1 1 418.8215042950096 277.3127894740747" stroke-linejoin="bevel" stroke-miterlimit="10"/><path fill="#29788E" stroke="#29788E" paint-order="fill stroke markers" d=" M 418.824525289675 249.9473684212441 A 3 3 0 1 1 418.82452378967514 249.94436842174412" stroke-linejoin="bevel" stroke-miterlimit="10"/><path fill="#29788E" stroke="#29788E" paint-order="fill stroke markers" d=" M 419.77125927926323 222.57894736839359 A 3 3 0 1 1 419.77125777926335 222.5759473688936" stroke-linejoin="bevel" stroke-miterlimit="10"/><path fill="#29788E" stroke="#29788E" paint-order="fill stroke markers" d=" M 421.4807012997704 195.21052631554306 A 3 3 0 1 1 421.4806997997705 195.20752631604307" stroke-linejoin="bevel" stroke-miterlimit="10"/><path fill="#29788E" stroke="#29788E" paint-order="fill stroke markers" d=" M 423.58683963295636 167.8421052632125 A 3 3 0 1 1 423.5868381329565 167.8391052637125" stroke-linejoin="bevel" stroke-miterlimit="10"/><path fill="#29788E" stroke="#29788E" paint-order="fill stroke markers" d=" M 425.9608153037708 140.47368421036197 A 3 3 0 1 1 425.9608138037709 140.47068421086198" stroke-linejoin="bevel" stroke-miterlimit="10"/><path fill="#29788E" stroke="#29788E" paint-order="fill stroke markers" d=" M 428.52134678013647 113.10526315803145 A 3 3 0 1 1 428.5213452801366 113.10226315853144" stroke-linejoin="bevel" stroke-miterlimit="10"/><path fill="#29788E" stroke="#29788E" paint-order="fill stroke markers" d=" M 431.3442478605471 85.73684210518093 A 3 3 0 1 1 431.34424636054723 85.73384210568092" stroke-linejoin="bevel" stroke-miterlimit="10"/><path fill="#29788E" stroke="#29788E" paint-order="fill stroke markers" d=" M 434.0424519720678 58.36842105285035 A 3 3 0 1 1 434.0424504720679 58.36542105335035" stroke-linejoin="bevel" stroke-miterlimit="10"/><path fill="#29788E" stroke="#29788E" paint-order="fill stroke markers" d=" M 436.9751973719325 30.999999999999886 A 3 3 0 1 1 436.9751958719326 30.997000000499884" stroke-linejoin="bevel" stroke-miterlimit="10"/></g></g></g><g clip-path="url(#sGBDqFsfXTqp)"><g><g><path fill="none" stroke="none"/><path fill="none" stroke="#22A784" paint-order="fill stroke markers" d=" M 109.67281556589704 550.9999999999999 L 706.6333622538604 523.6315789473574 L 577.8624421965444 496.26315789481885 L 516.9469935983049 468.8947368419683 L 482.6150128194241 441.5263157896378 L 461.581457803265 414.1578947367873 L 447.96084379893523 386.7894736844567 L 438.8979529723063 359.42105263160624 L 433.2397464009672 332.05263157875567 L 430.2444893007298 304.68421052642515 L 429.2589915282734 277.3157894735747 L 429.65683035244746 249.9473684212441 L 431.0603241161693 222.57894736839359 L 433.0979117596515 195.21052631554306 L 435.59258560912303 167.8421052632125 L 438.2794462136571 140.47368421036197 L 441.1518833281752 113.10526315803145 L 444.10837664554435 85.73684210518093 L 447.1962587848457 58.36842105285035 L 450.19731005052245 30.999999999999886" stroke-linejoin="bevel" stroke-miterlimit="10" stroke-width="2"/></g></g></g><g clip-path="url(#VABCTpfJpJeU)"><g><g><path fill="none" stroke="none"/><path fill="#22A784" stroke="#22A784" paint-order="fill stroke markers" d=" M 112.67281556589704 550.9999999999999 A 3 3 0 1 1 112.67281406589717 550.9970000004998" stroke-linejoin="bevel" stroke-miterlimit="10"/><path fill="#22A784" stroke="#22A784" paint-order="fill stroke markers" d=" M 709.6333622538604 523.6315789473574 A 3 3 0 1 1 709.6333607538605 523.6285789478574" stroke-linejoin="bevel" stroke-miterlimit="10"/><path fill="#22A784" stroke="#22A784" paint-order="fill stroke markers" d=" M 580.8624421965444 496.26315789481885 A 3 3 0 1 1 580.8624406965446 496.26015789531886" stroke-linejoin="bevel" stroke-miterlimit="10"/><path fill="#22A784" stroke="#22A784" paint-order="fill stroke markers" d=" M 519.9469935983049 468.8947368419683 A 3 3 0 1 1 519.946992098305 468.89173684246833" stroke-linejoin="bevel" stroke-miterlimit="10"/><path fill="#22A784" stroke="#22A784" paint-order="fill stroke markers" d=" M 485.6150128194241 441.5263157896378 A 3 3 0 1 1 485.61501131942424 441.5233157901378" stroke-linejoin="bevel" stroke-miterlimit="10"/><path fill="#22A784" stroke="#22A784" paint-order="fill stroke markers" d=" M 464.581457803265 414.1578947367873 A 3 3 0 1 1 464.5814563032651 414.1548947372873" stroke-linejoin="bevel" stroke-miterlimit="10"/><path fill="#22A784" stroke="#22A784" paint-order="fill stroke markers" d=" M 450.96084379893523 386.7894736844567 A 3 3 0 1 1 450.96084229893535 386.7864736849567" stroke-linejoin="bevel" stroke-miterlimit="10"/><path fill="#22A784" stroke="#22A784" paint-order="fill stroke markers" d=" M 441.8979529723063 359.42105263160624 A 3 3 0 1 1 441.89795147230643 359.41805263210625" stroke-linejoin="bevel" stroke-miterlimit="10"/><path fill="#22A784" stroke="#22A784" paint-order="fill stroke markers" d=" M 436.2397464009672 332.05263157875567 A 3 3 0 1 1 436.2397449009673 332.0496315792557" stroke-linejoin="bevel" stroke-miterlimit="10"/><path fill="#22A784" stroke="#22A784" paint-order="fill stroke markers" d=" M 433.2444893007298 304.68421052642515 A 3 3 0 1 1 433.2444878007299 304.68121052692516" stroke-linejoin="bevel" stroke-miterlimit="10"/><path fill="#22A784" stroke="#22A784" paint-order="fill stroke markers" d=" M 432.2589915282734 277.3157894735747 A 3 3 0 1 1 432.2589900282735 277.3127894740747" stroke-linejoin="bevel" stroke-miterlimit="10"/><path fill="#22A784" stroke="#22A784" paint-order="fill stroke markers" d=" M 432.65683035244746 249.9473684212441 A 3 3 0 1 1 432.6568288524476 249.94436842174412" stroke-linejoin="bevel" stroke-miterlimit="10"/><path fill="#22A784" stroke="#22A784" paint-order="fill stroke markers" d=" M 434.0603241161693 222.57894736839359 A 3 3 0 1 1 434.0603226161694 222.5759473688936" stroke-linejoin="bevel" stroke-miterlimit="10"/><path fill="#22A784" stroke="#22A784" paint-order="fill stroke markers" d=" M 436.0979117596515 195.21052631554306 A 3 3 0 1 1 436.0979102596516 195.20752631604307" stroke-linejoin="bevel" stroke-miterlimit="10"/><path fill="#22A784" stroke="#22A784" paint-order="fill stroke markers" d=" M 438.59258560912303 167.8421052632125 A 3 3 0 1 1 438.59258410912315 167.8391052637125" stroke-linejoin="bevel" stroke-miterlimit="10"/><path fill="#22A784" stroke="#22A784" paint-order="fill stroke markers" d=" M 441.2794462136571 140.47368421036197 A 3 3 0 1 1 441.2794447136572 140.47068421086198" stroke-linejoin="bevel" stroke-miterlimit="10"/><path fill="#22A784" stroke="#22A784" paint-order="fill stroke markers" d=" M 444.1518833281752 113.10526315803145 A 3 3 0 1 1 444.1518818281753 113.10226315853144" stroke-linejoin="bevel" stroke-miterlimit="10"/><path fill="#22A784" stroke="#22A784" paint-order="fill stroke markers" d=" M 447.10837664554435 85.73684210518093 A 3 3 0 1 1 447.10837514554447 85.73384210568092" stroke-linejoin="bevel" stroke-miterlimit="10"/><path fill="#22A784" stroke="#22A784" paint-order="fill stroke markers" d=" M 450.1962587848457 58.36842105285035 A 3 3 0 1 1 450.19625728484584 58.36542105335035" stroke-linejoin="bevel" stroke-miterlimit="10"/><path fill="#22A784" stroke="#22A784" paint-order="fill stroke markers" d=" M 453.19731005052245 30.999999999999886 A 3 3 0 1 1 453.19730855052256 30.997000000499884" stroke-linejoin="bevel" stroke-miterlimit="10"/></g></g></g><g clip-path="url(#OvdURxcEGCLc)"><g><g><path fill="none" stroke="none"/><path fill="none" stroke="#79D151" paint-order="fill stroke markers" d=" M 111.38108161564388 550.9999999999999 L 731.7462600036752 523.6315789473574 L 602.7361415635403 496.26315789481885 L 535.3792294777244 468.8947368419683 L 497.17860684700116 441.5263157896378 L 474.31351341522924 414.1578947367873 L 460.30543567920677 386.7894736844567 L 451.7165239071015 359.42105263160624 L 446.87891805629556 332.05263157875567 L 444.7770015751103 304.68421052642515 L 444.61010240780513 277.3157894735747 L 445.84425964636586 249.9473684212441 L 448.03445418240295 222.57894736839359 L 450.6231404063255 195.21052631554306 L 453.59734265186813 167.8421052632125 L 456.75173528177504 140.47368421036197 L 459.9933668251265 113.10526315803145 L 463.2284697313633 85.73684210518093 L 466.4843010604392 58.36842105285035 L 469.77416291047507 30.999999999999886" stroke-linejoin="bevel" stroke-miterlimit="10" stroke-width="2"/></g></g></g><g clip-path="url(#cJKiOubgUbIv)"><g><g><path fill="none" stroke="none"/><path fill="#79D151" stroke="#79D151" paint-order="fill stroke markers" d=" M 114.38108161564388 550.9999999999999 A 3 3 0 1 1 114.38108011564401 550.9970000004998" stroke-linejoin="bevel" stroke-miterlimit="10"/><path fill="#79D151" stroke="#79D151" paint-order="fill stroke markers" d=" M 734.7462600036752 523.6315789473574 A 3 3 0 1 1 734.7462585036753 523.6285789478574" stroke-linejoin="bevel" stroke-miterlimit="10"/><path fill="#79D151" stroke="#79D151" paint-order="fill stroke markers" d=" M 605.7361415635403 496.26315789481885 A 3 3 0 1 1 605.7361400635405 496.26015789531886" stroke-linejoin="bevel" stroke-miterlimit="10"/><path fill="#79D151" stroke="#79D151" paint-order="fill stroke markers" d=" M 538.3792294777244 468.8947368419683 A 3 3 0 1 1 538.3792279777246 468.89173684246833" stroke-linejoin="bevel" stroke-miterlimit="10"/><path fill="#79D151" stroke="#79D151" paint-order="fill stroke markers" d=" M 500.17860684700116 441.5263157896378 A 3 3 0 1 1 500.1786053470013 441.5233157901378" stroke-linejoin="bevel" stroke-miterlimit="10"/><path fill="#79D151" stroke="#79D151" paint-order="fill stroke markers" d=" M 477.31351341522924 414.1578947367873 A 3 3 0 1 1 477.31351191522936 414.1548947372873" stroke-linejoin="bevel" stroke-miterlimit="10"/><path fill="#79D151" stroke="#79D151" paint-order="fill stroke markers" d=" M 463.30543567920677 386.7894736844567 A 3 3 0 1 1 463.3054341792069 386.7864736849567" stroke-linejoin="bevel" stroke-miterlimit="10"/><path fill="#79D151" stroke="#79D151" paint-order="fill stroke markers" d=" M 454.7165239071015 359.42105263160624 A 3 3 0 1 1 454.7165224071016 359.41805263210625" stroke-linejoin="bevel" stroke-miterlimit="10"/><path fill="#79D151" stroke="#79D151" paint-order="fill stroke markers" d=" M 449.87891805629556 332.05263157875567 A 3 3 0 1 1 449.8789165562957 332.0496315792557" stroke-linejoin="bevel" stroke-miterlimit="10"/><path fill="#79D151" stroke="#79D151" paint-order="fill stroke markers" d=" M 447.7770015751103 304.68421052642515 A 3 3 0 1 1 447.77700007511044 304.68121052692516" stroke-linejoin="bevel" stroke-miterlimit="10"/><path fill="#79D151" stroke="#79D151" paint-order="fill stroke markers" d=" M 447.61010240780513 277.3157894735747 A 3 3 0 1 1 447.61010090780525 277.3127894740747" stroke-linejoin="bevel" stroke-miterlimit="10"/><path fill="#79D151" stroke="#79D151" paint-order="fill stroke markers" d=" M 448.84425964636586 249.9473684212441 A 3 3 0 1 1 448.844258146366 249.94436842174412" stroke-linejoin="bevel" stroke-miterlimit="10"/><path fill="#79D151" stroke="#79D151" paint-order="fill stroke markers" d=" M 451.03445418240295 222.57894736839359 A 3 3 0 1 1 451.03445268240307 222.5759473688936" stroke-linejoin="bevel" stroke-miterlimit="10"/><path fill="#79D151" stroke="#79D151" paint-order="fill stroke markers" d=" M 453.6231404063255 195.21052631554306 A 3 3 0 1 1 453.6231389063256 195.20752631604307" stroke-linejoin="bevel" stroke-miterlimit="10"/><path fill="#79D151" stroke="#79D151" paint-order="fill stroke markers" d=" M 456.59734265186813 167.8421052632125 A 3 3 0 1 1 456.59734115186825 167.8391052637125" stroke-linejoin="bevel" stroke-miterlimit="10"/><path fill="#79D151" stroke="#79D151" paint-order="fill stroke markers" d=" M 459.75173528177504 140.47368421036197 A 3 3 0 1 1 459.75173378177516 140.47068421086198" stroke-linejoin="bevel" stroke-miterlimit="10"/><path fill="#79D151" stroke="#79D151" paint-order="fill stroke markers" d=" M 462.9933668251265 113.10526315803145 A 3 3 0 1 1 462.9933653251266 113.10226315853144" stroke-linejoin="bevel" stroke-miterlimit="10"/><path fill="#79D151" stroke="#79D151" paint-order="fill stroke markers" d=" M 466.2284697313633 85.73684210518093 A 3 3 0 1 1 466.2284682313634 85.73384210568092" stroke-linejoin="bevel" stroke-miterlimit="10"/><path fill="#79D151" stroke="#79D151" paint-order="fill stroke markers" d=" M 469.4843010604392 58.36842105285035 A 3 3 0 1 1 469.4842995604393 58.36542105335035" stroke-linejoin="bevel" stroke-miterlimit="10"/><path fill="#79D151" stroke="#79D151" paint-order="fill stroke markers" d=" M 472.77416291047507 30.999999999999886 A 3 3 0 1 1 472.7741614104752 30.997000000499884" stroke-linejoin="bevel" stroke-miterlimit="10"/></g></g></g><g clip-path="url(#TSRNnvJoVwGe)"><g><g><path fill="none" stroke="none"/><path fill="none" stroke="#FDE724" paint-order="fill stroke markers" d=" M 113.61726733985506 550.9999999999999 L 737.7727272727271 523.6315789473574 L 621.7951714903464 496.26315789481885 L 549.7970247571377 468.8947368419683 L 508.5081588718726 441.5263157896378 L 484.49899387279316 414.1578947367873 L 471.0484440646362 386.7894736844567 L 463.99462569875857 359.42105263160624 L 460.8806249306003 332.05263157875567 L 460.48341176748323 304.68421052642515 L 461.752426487705 277.3157894735747 L 464.18978094350905 249.9473684212441 L 467.2443568325303 222.57894736839359 L 470.61725478586817 195.21052631554306 L 474.21379936436483 167.8421052632125 L 477.8837095024374 140.47368421036197 L 481.5585161183459 113.10526315803145 L 485.26861817865546 85.73684210518093 L 488.7545540431025 58.36842105285035 L 492.23144502488043 30.999999999999886" stroke-linejoin="bevel" stroke-miterlimit="10" stroke-width="2"/></g></g></g><g clip-path="url(#bDdhODloEfTO)"><g><g><path fill="none" stroke="none"/><path fill="#FDE724" stroke="#FDE724" paint-order="fill stroke markers" d=" M 116.61726733985506 550.9999999999999 A 3 3 0 1 1 116.6172658398552 550.9970000004998" stroke-linejoin="bevel" stroke-miterlimit="10"/><path fill="#FDE724" stroke="#FDE724" paint-order="fill stroke markers" d=" M 740.7727272727271 523.6315789473574 A 3 3 0 1 1 740.7727257727273 523.6285789478574" stroke-linejoin="bevel" stroke-miterlimit="10"/><path fill="#FDE724" stroke="#FDE724" paint-order="fill stroke markers" d=" M 624.7951714903464 496.26315789481885 A 3 3 0 1 1 624.7951699903466 496.26015789531886" stroke-linejoin="bevel" stroke-miterlimit="10"/><path fill="#FDE724" stroke="#FDE724" paint-order="fill stroke markers" d=" M 552.7970247571377 468.8947368419683 A 3 3 0 1 1 552.7970232571379 468.89173684246833" stroke-linejoin="bevel" stroke-miterlimit="10"/><path fill="#FDE724" stroke="#FDE724" paint-order="fill stroke markers" d=" M 511.5081588718726 441.5263157896378 A 3 3 0 1 1 511.5081573718727 441.5233157901378" stroke-linejoin="bevel" stroke-miterlimit="10"/><path fill="#FDE724" stroke="#FDE724" paint-order="fill stroke markers" d=" M 487.49899387279316 414.1578947367873 A 3 3 0 1 1 487.4989923727933 414.1548947372873" stroke-linejoin="bevel" stroke-miterlimit="10"/><path fill="#FDE724" stroke="#FDE724" paint-order="fill stroke markers" d=" M 474.0484440646362 386.7894736844567 A 3 3 0 1 1 474.04844256463633 386.7864736849567" stroke-linejoin="bevel" stroke-miterlimit="10"/><path fill="#FDE724" stroke="#FDE724" paint-order="fill stroke markers" d=" M 466.99462569875857 359.42105263160624 A 3 3 0 1 1 466.9946241987587 359.41805263210625" stroke-linejoin="bevel" stroke-miterlimit="10"/><path fill="#FDE724" stroke="#FDE724" paint-order="fill stroke markers" d=" M 463.8806249306003 332.05263157875567 A 3 3 0 1 1 463.8806234306004 332.0496315792557" stroke-linejoin="bevel" stroke-miterlimit="10"/><path fill="#FDE724" stroke="#FDE724" paint-order="fill stroke markers" d=" M 463.48341176748323 304.68421052642515 A 3 3 0 1 1 463.48341026748335 304.68121052692516" stroke-linejoin="bevel" stroke-miterlimit="10"/><path fill="#FDE724" stroke="#FDE724" paint-order="fill stroke markers" d=" M 464.752426487705 277.3157894735747 A 3 3 0 1 1 464.7524249877051 277.3127894740747" stroke-linejoin="bevel" stroke-miterlimit="10"/><path fill="#FDE724" stroke="#FDE724" paint-order="fill stroke markers" d=" M 467.18978094350905 249.9473684212441 A 3 3 0 1 1 467.18977944350917 249.94436842174412" stroke-linejoin="bevel" stroke-miterlimit="10"/><path fill="#FDE724" stroke="#FDE724" paint-order="fill stroke markers" d=" M 470.2443568325303 222.57894736839359 A 3 3 0 1 1 470.2443553325304 222.5759473688936" stroke-linejoin="bevel" stroke-miterlimit="10"/><path fill="#FDE724" stroke="#FDE724" paint-order="fill stroke markers" d=" M 473.61725478586817 195.21052631554306 A 3 3 0 1 1 473.6172532858683 195.20752631604307" stroke-linejoin="bevel" stroke-miterlimit="10"/><path fill="#FDE724" stroke="#FDE724" paint-order="fill stroke markers" d=" M 477.21379936436483 167.8421052632125 A 3 3 0 1 1 477.21379786436495 167.8391052637125" stroke-linejoin="bevel" stroke-miterlimit="10"/><path fill="#FDE724" stroke="#FDE724" paint-order="fill stroke markers" d=" M 480.8837095024374 140.47368421036197 A 3 3 0 1 1 480.8837080024375 140.47068421086198" stroke-linejoin="bevel" stroke-miterlimit="10"/><path fill="#FDE724" stroke="#FDE724" paint-order="fill stroke markers" d=" M 484.5585161183459 113.10526315803145 A 3 3 0 1 1 484.558514618346 113.10226315853144" stroke-linejoin="bevel" stroke-miterlimit="10"/><path fill="#FDE724" stroke="#FDE724" paint-order="fill stroke markers" d=" M 488.26861817865546 85.73684210518093 A 3 3 0 1 1 488.2686166786556 85.73384210568092" stroke-linejoin="bevel" stroke-miterlimit="10"/><path fill="#FDE724" stroke="#FDE724" paint-order="fill stroke markers" d=" M 491.7545540431025 58.36842105285035 A 3 3 0 1 1 491.7545525431026 58.36542105335035" stroke-linejoin="bevel" stroke-miterlimit="10"/><path fill="#FDE724" stroke="#FDE724" paint-order="fill stroke markers" d=" M 495.23144502488043 30.999999999999886 A 3 3 0 1 1 495.23144352488055 30.997000000499884" stroke-linejoin="bevel" stroke-miterlimit="10"/></g></g></g><g clip-path="url(#rSlUcxEoTThM)"><g><g/><g><path fill="#ffffff" stroke="#e5e5e5" paint-order="fill stroke markers" d=" M 659.4375 15 L 760 15 L 760 147 L 659.4375 147 L 659.4375 15 Z" fill-opacity="0.95" stroke-linejoin="bevel" stroke-miterlimit="10" stroke-opacity="0.5"/><text fill="#444444" stroke="none" font-family="helvetica" font-size="10pt" font-style="normal" font-weight="normal" text-decoration="normal" x="694.4375" y="35" text-anchor="start" dominant-baseline="central">Temp-500</text><g><path fill="none" stroke="#404387" paint-order="fill stroke markers" d=" M 669.4375 35 L 689.4375 35" stroke-linejoin="bevel" stroke-miterlimit="10" stroke-width="2"/></g><path fill="#404387" stroke="#404387" paint-order="fill stroke markers" d=" M 683.4375 35 A 4 4 0 1 1 683.4374980000001 34.99600000066666" stroke-linejoin="bevel" stroke-miterlimit="10"/><text fill="#444444" stroke="none" font-family="helvetica" font-size="10pt" font-style="normal" font-weight="normal" text-decoration="normal" x="694.4375" y="58" text-anchor="start" dominant-baseline="central">Temp-450</text><g><path fill="none" stroke="#29788E" paint-order="fill stroke markers" d=" M 669.4375 58 L 689.4375 58" stroke-linejoin="bevel" stroke-miterlimit="10" stroke-width="2"/></g><path fill="#29788E" stroke="#29788E" paint-order="fill stroke markers" d=" M 683.4375 58 A 4 4 0 1 1 683.4374980000001 57.99600000066666" stroke-linejoin="bevel" stroke-miterlimit="10"/><text fill="#444444" stroke="none" font-family="helvetica" font-size="10pt" font-style="normal" font-weight="normal" text-decoration="normal" x="694.4375" y="81" text-anchor="start" dominant-baseline="central">Temp-400</text><g><path fill="none" stroke="#22A784" paint-order="fill stroke markers" d=" M 669.4375 81 L 689.4375 81" stroke-linejoin="bevel" stroke-miterlimit="10" stroke-width="2"/></g><path fill="#22A784" stroke="#22A784" paint-order="fill stroke markers" d=" M 683.4375 81 A 4 4 0 1 1 683.4374980000001 80.99600000066667" stroke-linejoin="bevel" stroke-miterlimit="10"/><text fill="#444444" stroke="none" font-family="helvetica" font-size="10pt" font-style="normal" font-weight="normal" text-decoration="normal" x="694.4375" y="104" text-anchor="start" dominant-baseline="central">Temp-350</text><g><path fill="none" stroke="#79D151" paint-order="fill stroke markers" d=" M 669.4375 104 L 689.4375 104" stroke-linejoin="bevel" stroke-miterlimit="10" stroke-width="2"/></g><path fill="#79D151" stroke="#79D151" paint-order="fill stroke markers" d=" M 683.4375 104 A 4 4 0 1 1 683.4374980000001 103.99600000066667" stroke-linejoin="bevel" stroke-miterlimit="10"/><text fill="#444444" stroke="none" font-family="helvetica" font-size="10pt" font-style="normal" font-weight="normal" text-decoration="normal" x="694.4375" y="127" text-anchor="start" dominant-baseline="central">Temp-300</text><g><path fill="none" stroke="#FDE724" paint-order="fill stroke markers" d=" M 669.4375 127 L 689.4375 127" stroke-linejoin="bevel" stroke-miterlimit="10" stroke-width="2"/></g><path fill="#FDE724" stroke="#FDE724" paint-order="fill stroke markers" d=" M 683.4375 127 A 4 4 0 1 1 683.4374980000001 126.99600000066667" stroke-linejoin="bevel" stroke-miterlimit="10"/></g></g></g><g/><g/><g><g fill="#444444"><path fill="none" stroke="black" paint-order="fill stroke markers" d=" M 61 577 L 770 577" stroke-linejoin="bevel" stroke-miterlimit="10"/><path fill="none" stroke="black" paint-order="fill stroke markers" d=" M 169 583 L 169 575" stroke-linejoin="bevel" stroke-miterlimit="10"/><path fill="none" stroke="black" paint-order="fill stroke markers" d=" M 283 583 L 283 575" stroke-linejoin="bevel" stroke-miterlimit="10"/><path fill="none" stroke="black" paint-order="fill stroke markers" d=" M 397 583 L 397 575" stroke-linejoin="bevel" stroke-miterlimit="10"/><path fill="none" stroke="black" paint-order="fill stroke markers" d=" M 511 583 L 511 575" stroke-linejoin="bevel" stroke-miterlimit="10"/><path fill="none" stroke="black" paint-order="fill stroke markers" d=" M 626 583 L 626 575" stroke-linejoin="bevel" stroke-miterlimit="10"/><path fill="none" stroke="black" paint-order="fill stroke markers" d=" M 740 583 L 740 575" stroke-linejoin="bevel" stroke-miterlimit="10"/><path fill="none" stroke="black" paint-order="fill stroke markers" d=" M 146 581 L 146 577" stroke-linejoin="bevel" stroke-miterlimit="10"/><path fill="none" stroke="black" paint-order="fill stroke markers" d=" M 123 581 L 123 577" stroke-linejoin="bevel" stroke-miterlimit="10"/><path fill="none" stroke="black" paint-order="fill stroke markers" d=" M 100 581 L 100 577" stroke-linejoin="bevel" stroke-miterlimit="10"/><path fill="none" stroke="black" paint-order="fill stroke markers" d=" M 77 581 L 77 577" stroke-linejoin="bevel" stroke-miterlimit="10"/><path fill="none" stroke="black" paint-order="fill stroke markers" d=" M 169 581 L 169 577" stroke-linejoin="bevel" stroke-miterlimit="10"/><path fill="none" stroke="black" paint-order="fill stroke markers" d=" M 191 581 L 191 577" stroke-linejoin="bevel" stroke-miterlimit="10"/><path fill="none" stroke="black" paint-order="fill stroke markers" d=" M 214 581 L 214 577" stroke-linejoin="bevel" stroke-miterlimit="10"/><path fill="none" stroke="black" paint-order="fill stroke markers" d=" M 237 581 L 237 577" stroke-linejoin="bevel" stroke-miterlimit="10"/><path fill="none" stroke="black" paint-order="fill stroke markers" d=" M 260 581 L 260 577" stroke-linejoin="bevel" stroke-miterlimit="10"/><path fill="none" stroke="black" paint-order="fill stroke markers" d=" M 283 581 L 283 577" stroke-linejoin="bevel" stroke-miterlimit="10"/><path fill="none" stroke="black" paint-order="fill stroke markers" d=" M 306 581 L 306 577" stroke-linejoin="bevel" stroke-miterlimit="10"/><path fill="none" stroke="black" paint-order="fill stroke markers" d=" M 328 581 L 328 577" stroke-linejoin="bevel" stroke-miterlimit="10"/><path fill="none" stroke="black" paint-order="fill stroke markers" d=" M 351 581 L 351 577" stroke-linejoin="bevel" stroke-miterlimit="10"/><path fill="none" stroke="black" paint-order="fill stroke markers" d=" M 374 581 L 374 577" stroke-linejoin="bevel" stroke-miterlimit="10"/><path fill="none" stroke="black" paint-order="fill stroke markers" d=" M 397 581 L 397 577" stroke-linejoin="bevel" stroke-miterlimit="10"/><path fill="none" stroke="black" paint-order="fill stroke markers" d=" M 420 581 L 420 577" stroke-linejoin="bevel" stroke-miterlimit="10"/><path fill="none" stroke="black" paint-order="fill stroke markers" d=" M 443 581 L 443 577" stroke-linejoin="bevel" stroke-miterlimit="10"/><path fill="none" stroke="black" paint-order="fill stroke markers" d=" M 466 581 L 466 577" stroke-linejoin="bevel" stroke-miterlimit="10"/><path fill="none" stroke="black" paint-order="fill stroke markers" d=" M 488 581 L 488 577" stroke-linejoin="bevel" stroke-miterlimit="10"/><path fill="none" stroke="black" paint-order="fill stroke markers" d=" M 511 581 L 511 577" stroke-linejoin="bevel" stroke-miterlimit="10"/><path fill="none" stroke="black" paint-order="fill stroke markers" d=" M 534 581 L 534 577" stroke-linejoin="bevel" stroke-miterlimit="10"/><path fill="none" stroke="black" paint-order="fill stroke markers" d=" M 557 581 L 557 577" stroke-linejoin="bevel" stroke-miterlimit="10"/><path fill="none" stroke="black" paint-order="fill stroke markers" d=" M 580 581 L 580 577" stroke-linejoin="bevel" stroke-miterlimit="10"/><path fill="none" stroke="black" paint-order="fill stroke markers" d=" M 603 581 L 603 577" stroke-linejoin="bevel" stroke-miterlimit="10"/><path fill="none" stroke="black" paint-order="fill stroke markers" d=" M 626 581 L 626 577" stroke-linejoin="bevel" stroke-miterlimit="10"/><path fill="none" stroke="black" paint-order="fill stroke markers" d=" M 648 581 L 648 577" stroke-linejoin="bevel" stroke-miterlimit="10"/><path fill="none" stroke="black" paint-order="fill stroke markers" d=" M 671 581 L 671 577" stroke-linejoin="bevel" stroke-miterlimit="10"/><path fill="none" stroke="black" paint-order="fill stroke markers" d=" M 694 581 L 694 577" stroke-linejoin="bevel" stroke-miterlimit="10"/><path fill="none" stroke="black" paint-order="fill stroke markers" d=" M 717 581 L 717 577" stroke-linejoin="bevel" stroke-miterlimit="10"/><path fill="none" stroke="black" paint-order="fill stroke markers" d=" M 740 581 L 740 577" stroke-linejoin="bevel" stroke-miterlimit="10"/><path fill="" stroke="black" paint-order="fill stroke markers" d=" M 763 581 L 763 577" stroke-linejoin="bevel" stroke-miterlimit="10"/><g transform="translate(169,588) rotate(0,0,0)"><text fill="" stroke="none" font-family="helvetica" font-size="8pt" font-style="normal" font-weight="normal" text-decoration="normal" x="0" y="0" text-anchor="middle" dominant-baseline="hanging">1</text><g transform="rotate(0,0,0) translate(-169,-588) translate(283,588) rotate(0,0,0)"><text fill="" stroke="none" font-family="helvetica" font-size="8pt" font-style="normal" font-weight="normal" text-decoration="normal" x="0" y="0" text-anchor="middle" dominant-baseline="hanging">2</text><g transform="rotate(0,0,0) translate(-283,-588) translate(397,588) rotate(0,0,0)"><text fill="" stroke="none" font-family="helvetica" font-size="8pt" font-style="normal" font-weight="normal" text-decoration="normal" x="0" y="0" text-anchor="middle" dominant-baseline="hanging">3</text><g transform="rotate(0,0,0) translate(-397,-588) translate(511,588) rotate(0,0,0)"><text fill="" stroke="none" font-family="helvetica" font-size="8pt" font-style="normal" font-weight="normal" text-decoration="normal" x="0" y="0" text-anchor="middle" dominant-baseline="hanging">4</text><g transform="rotate(0,0,0) translate(-511,-588) translate(626,588) rotate(0,0,0)"><text fill="" stroke="none" font-family="helvetica" font-size="8pt" font-style="normal" font-weight="normal" text-decoration="normal" x="0" y="0" text-anchor="middle" dominant-baseline="hanging">5</text><g transform="rotate(0,0,0) translate(-626,-588) translate(740,588) rotate(0,0,0)"><text fill="" stroke="none" font-family="helvetica" font-size="8pt" font-style="normal" font-weight="normal" text-decoration="normal" x="0" y="0" text-anchor="middle" dominant-baseline="hanging">6</text><g transform="rotate(0,0,0) translate(-740,-588)"/></g></g></g></g></g></g></g></g><g><g fill="#444444"><path fill="none" stroke="black" paint-order="fill stroke markers" d=" M 61 577 L 61 5" stroke-linejoin="bevel" stroke-miterlimit="10"/><path fill="none" stroke="black" paint-order="fill stroke markers" d=" M 55 551 L 63 551" stroke-linejoin="bevel" stroke-miterlimit="10"/><path fill="none" stroke="black" paint-order="fill stroke markers" d=" M 55 447 L 63 447" stroke-linejoin="bevel" stroke-miterlimit="10"/><path fill="none" stroke="black" paint-order="fill stroke markers" d=" M 55 343 L 63 343" stroke-linejoin="bevel" stroke-miterlimit="10"/><path fill="none" stroke="black" paint-order="fill stroke markers" d=" M 55 239 L 63 239" stroke-linejoin="bevel" stroke-miterlimit="10"/><path fill="none" stroke="black" paint-order="fill stroke markers" d=" M 55 135 L 63 135" stroke-linejoin="bevel" stroke-miterlimit="10"/><path fill="none" stroke="black" paint-order="fill stroke markers" d=" M 55 31 L 63 31" stroke-linejoin="bevel" stroke-miterlimit="10"/><path fill="none" stroke="black" paint-order="fill stroke markers" d=" M 57 572 L 61 572" stroke-linejoin="bevel" stroke-miterlimit="10"/><path fill="none" stroke="black" paint-order="fill stroke markers" d=" M 57 551 L 61 551" stroke-linejoin="bevel" stroke-miterlimit="10"/><path fill="none" stroke="black" paint-order="fill stroke markers" d=" M 57 530 L 61 530" stroke-linejoin="bevel" stroke-miterlimit="10"/><path fill="none" stroke="black" paint-order="fill stroke markers" d=" M 57 509 L 61 509" stroke-linejoin="bevel" stroke-miterlimit="10"/><path fill="none" stroke="black" paint-order="fill stroke markers" d=" M 57 489 L 61 489" stroke-linejoin="bevel" stroke-miterlimit="10"/><path fill="none" stroke="black" paint-order="fill stroke markers" d=" M 57 468 L 61 468" stroke-linejoin="bevel" stroke-miterlimit="10"/><path fill="none" stroke="black" paint-order="fill stroke markers" d=" M 57 447 L 61 447" stroke-linejoin="bevel" stroke-miterlimit="10"/><path fill="none" stroke="black" paint-order="fill stroke markers" d=" M 57 426 L 61 426" stroke-linejoin="bevel" stroke-miterlimit="10"/><path fill="none" stroke="black" paint-order="fill stroke markers" d=" M 57 405 L 61 405" stroke-linejoin="bevel" stroke-miterlimit="10"/><path fill="none" stroke="black" paint-order="fill stroke markers" d=" M 57 385 L 61 385" stroke-linejoin="bevel" stroke-miterlimit="10"/><path fill="none" stroke="black" paint-order="fill stroke markers" d=" M 57 364 L 61 364" stroke-linejoin="bevel" stroke-miterlimit="10"/><path fill="none" stroke="black" paint-order="fill stroke markers" d=" M 57 343 L 61 343" stroke-linejoin="bevel" stroke-miterlimit="10"/><path fill="none" stroke="black" paint-order="fill stroke markers" d=" M 57 322 L 61 322" stroke-linejoin="bevel" stroke-miterlimit="10"/><path fill="none" stroke="black" paint-order="fill stroke markers" d=" M 57 301 L 61 301" stroke-linejoin="bevel" stroke-miterlimit="10"/><path fill="none" stroke="black" paint-order="fill stroke markers" d=" M 57 281 L 61 281" stroke-linejoin="bevel" stroke-miterlimit="10"/><path fill="none" stroke="black" paint-order="fill stroke markers" d=" M 57 260 L 61 260" stroke-linejoin="bevel" stroke-miterlimit="10"/><path fill="none" stroke="black" paint-order="fill stroke markers" d=" M 57 239 L 61 239" stroke-linejoin="bevel" stroke-miterlimit="10"/><path fill="none" stroke="black" paint-order="fill stroke markers" d=" M 57 218 L 61 218" stroke-linejoin="bevel" stroke-miterlimit="10"/><path fill="none" stroke="black" paint-order="fill stroke markers" d=" M 57 197 L 61 197" stroke-linejoin="bevel" stroke-miterlimit="10"/><path fill="none" stroke="black" paint-order="fill stroke markers" d=" M 57 177 L 61 177" stroke-linejoin="bevel" stroke-miterlimit="10"/><path fill="none" stroke="black" paint-order="fill stroke markers" d=" M 57 156 L 61 156" stroke-linejoin="bevel" stroke-miterlimit="10"/><path fill="none" stroke="black" paint-order="fill stroke markers" d=" M 57 135 L 61 135" stroke-linejoin="bevel" stroke-miterlimit="10"/><path fill="none" stroke="black" paint-order="fill stroke markers" d=" M 57 114 L 61 114" stroke-linejoin="bevel" stroke-miterlimit="10"/><path fill="none" stroke="black" paint-order="fill stroke markers" d=" M 57 93 L 61 93" stroke-linejoin="bevel" stroke-miterlimit="10"/><path fill="none" stroke="black" paint-order="fill stroke markers" d=" M 57 73 L 61 73" stroke-linejoin="bevel" stroke-miterlimit="10"/><path fill="none" stroke="black" paint-order="fill stroke markers" d=" M 57 52 L 61 52" stroke-linejoin="bevel" stroke-miterlimit="10"/><path fill="none" stroke="black" paint-order="fill stroke markers" d=" M 57 31 L 61 31" stroke-linejoin="bevel" stroke-miterlimit="10"/><path fill="" stroke="black" paint-order="fill stroke markers" d=" M 57 10 L 61 10" stroke-linejoin="bevel" stroke-miterlimit="10"/><g transform="translate(50,551) rotate(0,0,0)"><text fill="" stroke="none" font-family="helvetica" font-size="8pt" font-style="normal" font-weight="normal" text-decoration="normal" x="0" y="0" text-anchor="end" dominant-baseline="central">0.000e+0</text><g transform="rotate(0,0,0) translate(-50,-551) translate(50,447) rotate(0,0,0)"><text fill="" stroke="none" font-family="helvetica" font-size="8pt" font-style="normal" font-weight="normal" text-decoration="normal" x="0" y="0" text-anchor="end" dominant-baseline="central">2.000e-4</text><g transform="rotate(0,0,0) translate(-50,-447) translate(50,343) rotate(0,0,0)"><text fill="" stroke="none" font-family="helvetica" font-size="8pt" font-style="normal" font-weight="normal" text-decoration="normal" x="0" y="0" text-anchor="end" dominant-baseline="central">4.000e-4</text><g transform="rotate(0,0,0) translate(-50,-343) translate(50,239) rotate(0,0,0)"><text fill="" stroke="none" font-family="helvetica" font-size="8pt" font-style="normal" font-weight="normal" text-decoration="normal" x="0" y="0" text-anchor="end" dominant-baseline="central">6.000e-4</text><g transform="rotate(0,0,0) translate(-50,-239) translate(50,135) rotate(0,0,0)"><text fill="" stroke="none" font-family="helvetica" font-size="8pt" font-style="normal" font-weight="normal" text-decoration="normal" x="0" y="0" text-anchor="end" dominant-baseline="central">8.000e-4</text><g transform="rotate(0,0,0) translate(-50,-135) translate(50,31) rotate(0,0,0)"><text fill="" stroke="none" font-family="helvetica" font-size="8pt" font-style="normal" font-weight="normal" text-decoration="normal" x="0" y="0" text-anchor="end" dominant-baseline="central">1.000e-3</text><g transform="rotate(0,0,0) translate(-50,-31)"/></g></g></g></g></g></g></g></g><g clip-path="url(#lKseJVqJfokS)"><g/></g></g></g></svg>