<svg version="1.1" xmlns="http://www.w3.org/2000/svg" xmlns:xlink="http://www.w3.org/1999/xlink" width="800" height="600" style="width: 800px; height: 600px;"><defs><clipPath id="MSKOCMTUksAb"><path fill="none" stroke="none" d=" M 61 5 L 770 5 L 770 577 L 61 577 L 61 5 Z"/></clipPath><clipPath id="EbsGzVPDZgNI"><path fill="none" stroke="none" d=" M 61 5 L 770 5 L 770 577 L 61 577 L 61 5 Z"/></clipPath><clipPath id="DxaLbRqUBgXL"><path fill="none" stroke="none" d=" M 61 5 L 770 5 L 770 577 L 61 577 L 61 5 Z"/></clipPath><clipPath id="NGoUNVtFJFbd"><path fill="none" stroke="none" d=" M 61 5 L 770 5 L 770 577 L 61 577 L 61 5 Z"/></clipPath><clipPath id="kDcLmLpPFHXW"><path fill="none" stroke="none" d=" M 61 5 L 770 5 L 770 577 L 61 577 L 61 5 Z"/></clipPath><clipPath id="LpDsrZrBVVNx"><path fill="none" stroke="none" d=" M 61 5 L 770 5 L 770 577 L 61 577 L 61 5 Z"/></clipPath></defs><g><g transform="scale(1,1) translate(0.5,0.5)"><rect fill="#FFFFFF" stroke="none" x="0" y="0" width="800" height="600"/><rect fill="#ffffff" stroke="none" x="0" y="0" width="800" height="600"/><rect fill="#FFFFFF" stroke="none" x="61" y="5" width="709" height="572"/><rect fill="#ffffff" stroke="none" x="61" y="5" width="709" height="572"/><g><rect fill="none" stroke="#e5e5e5" x="61" y="5" width="709" height="572" stroke-linejoin="bevel" stroke-miterlimit="10"/></g><g clip-path="url(#MSKOCMTUksAb)"><g><g><path fill="none" stroke="#e5e5e5" paint-order="fill stroke markers" d=" M 153 577 L 153 5" stroke-linejoin="bevel" stroke-miterlimit="10"/><path fill="none" stroke="#e5e5e5" paint-order="fill stroke markers" d=" M 271 577 L 271 5" stroke-linejoin="bevel" stroke-miterlimit="10"/><path fill="none" stroke="#e5e5e5" paint-order="fill stroke markers" d=" M 390 577 L 390 5" stroke-linejoin="bevel" stroke-miterlimit="10"/><path fill="none" stroke="#e5e5e5" paint-order="fill stroke markers" d=" M 509 577 L 509 5" stroke-linejoin="bevel" stroke-miterlimit="10"/><path fill="none" stroke="#e5e5e5" paint-order="fill stroke markers" d=" M 627 577 L 627 5" stroke-linejoin="bevel" stroke-miterlimit="10"/><path fill="none" stroke="#e5e5e5" paint-order="fill stroke markers" d=" M 746 577 L 746 5" stroke-linejoin="bevel" stroke-miterlimit="10"/></g></g></g><g clip-path="url(#EbsGzVPDZgNI)"><g><g><path fill="none" stroke="#e5e5e5" paint-order="fill stroke markers" d=" M 61 551 L 770 551" stroke-linejoin="bevel" stroke-miterlimit="10"/><path fill="none" stroke="#e5e5e5" paint-order="fill stroke markers" d=" M 61 447 L 770 447" stroke-linejoin="bevel" stroke-miterlimit="10"/><path fill="none" stroke="#e5e5e5" paint-order="fill stroke markers" d=" M 61 343 L 770 343" stroke-linejoin="bevel" stroke-miterlimit="10"/><path fill="none" stroke="#e5e5e5" paint-order="fill stroke markers" d=" M 61 239 L 770 239" stroke-linejoin="bevel" stroke-miterlimit="10"/><path fill="none" stroke="#e5e5e5" paint-order="fill stroke markers" d=" M 61 135 L 770 135" stroke-linejoin="bevel" stroke-miterlimit="10"/><path fill="none" stroke="#e5e5e5" paint-order="fill stroke markers" d=" M 61 31 L 770 31" stroke-linejoin="bevel" stroke-miterlimit="10"/></g></g></g><g clip-path="url(#DxaLbRqUBgXL)"><g><g><path fill="none" stroke="none"/><path fill="#79D151" stroke="#79D151" paint-order="fill stroke markers" d=" M 96.22727272727275 550.9999999999999 A 3 3 0 1 1 96.22727122727288 550.9970000004998" stroke-linejoin="bevel" stroke-miterlimit="10"/><path fill="#79D151" stroke="#79D151" paint-order="fill stroke markers" d=" M 740.7727272727273 523.6315789473574 A 3 3 0 1 1 740.7727257727274 523.6285789478574" stroke-linejoin="bevel" stroke-miterlimit="10"/><path fill="#79D151" stroke="#79D151" paint-order="fill stroke markers" d=" M 606.734118518081 496.26315789481885 A 3 3 0 1 1 606.7341170180812 496.26015789531886" stroke-linejoin="bevel" stroke-miterlimit="10"/><path fill="#79D151" stroke="#79D151" paint-order="fill stroke markers" d=" M 536.751803214795 468.8947368419683 A 3 3 0 1 1 536.7518017147952 468.89173684246833" stroke-linejoin="bevel" stroke-miterlimit="10"/><path fill="#79D151" stroke="#79D151" paint-order="fill stroke markers" d=" M 497.06221628243816 441.5263157896378 A 3 3 0 1 1 497.0622147824383 441.5233157901378" stroke-linejoin="bevel" stroke-miterlimit="10"/><path fill="#79D151" stroke="#79D151" paint-order="fill stroke markers" d=" M 473.3058989509268 414.1578947367873 A 3 3 0 1 1 473.3058974509269 414.1548947372873" stroke-linejoin="bevel" stroke-miterlimit="10"/><path fill="#79D151" stroke="#79D151" paint-order="fill stroke markers" d=" M 458.7518215361799 386.7894736844567 A 3 3 0 1 1 458.75182003618 386.7864736849567" stroke-linejoin="bevel" stroke-miterlimit="10"/><path fill="#79D151" stroke="#79D151" paint-order="fill stroke markers" d=" M 449.8281355604662 359.42105263160624 A 3 3 0 1 1 449.8281340604663 359.41805263210625" stroke-linejoin="bevel" stroke-miterlimit="10"/><path fill="#79D151" stroke="#79D151" paint-order="fill stroke markers" d=" M 444.8019719867442 332.05263157875567 A 3 3 0 1 1 444.8019704867443 332.0496315792557" stroke-linejoin="bevel" stroke-miterlimit="10"/><path fill="#79D151" stroke="#79D151" paint-order="fill stroke markers" d=" M 442.61812808160687 304.68421052642515 A 3 3 0 1 1 442.618126581607 304.68121052692516" stroke-linejoin="bevel" stroke-miterlimit="10"/><path fill="#79D151" stroke="#79D151" paint-order="fill stroke markers" d=" M 442.44472360404825 277.3157894735747 A 3 3 0 1 1 442.44472210404837 277.3127894740747" stroke-linejoin="bevel" stroke-miterlimit="10"/><path fill="#79D151" stroke="#79D151" paint-order="fill stroke markers" d=" M 443.7269851912889 249.9473684212441 A 3 3 0 1 1 443.72698369128904 249.94436842174412" stroke-linejoin="bevel" stroke-miterlimit="10"/><path fill="#79D151" stroke="#79D151" paint-order="fill stroke markers" d=" M 446.002548008082 222.57894736839359 A 3 3 0 1 1 446.0025465080821 222.5759473688936" stroke-linejoin="bevel" stroke-miterlimit="10"/><path fill="#79D151" stroke="#79D151" paint-order="fill stroke markers" d=" M 448.69213471765397 195.21052631554306 A 3 3 0 1 1 448.6921332176541 195.20752631604307" stroke-linejoin="bevel" stroke-miterlimit="10"/><path fill="#79D151" stroke="#79D151" paint-order="fill stroke markers" d=" M 451.7822638948663 167.8421052632125 A 3 3 0 1 1 451.7822623948664 167.8391052637125" stroke-linejoin="bevel" stroke-miterlimit="10"/><path fill="#79D151" stroke="#79D151" paint-order="fill stroke markers" d=" M 455.05960682494685 140.47368421036197 A 3 3 0 1 1 455.059605324947 140.47068421086198" stroke-linejoin="bevel" stroke-miterlimit="10"/><path fill="#79D151" stroke="#79D151" paint-order="fill stroke markers" d=" M 458.42758902215434 113.10526315803145 A 3 3 0 1 1 458.42758752215445 113.10226315853144" stroke-linejoin="bevel" stroke-miterlimit="10"/><path fill="#79D151" stroke="#79D151" paint-order="fill stroke markers" d=" M 461.7887881123739 85.73684210518093 A 3 3 0 1 1 461.788786612374 85.73384210568092" stroke-linejoin="bevel" stroke-miterlimit="10"/><path fill="#79D151" stroke="#79D151" paint-order="fill stroke markers" d=" M 465.1715235672803 58.36842105285035 A 3 3 0 1 1 465.1715220672804 58.36542105335035" stroke-linejoin="bevel" stroke-miterlimit="10"/><path fill="#79D151" stroke="#79D151" paint-order="fill stroke markers" d=" M 468.5896159673615 30.999999999999886 A 3 3 0 1 1 468.5896144673616 30.997000000499884" stroke-linejoin="bevel" stroke-miterlimit="10"/></g></g></g><g clip-path="url(#NGoUNVtFJFbd)"><g><g><path fill="none" stroke="none"/><path fill="none" stroke="#79D151" paint-order="fill stroke markers" d=" M 93.22727272727275 550.9999999999999 L 737.7727272727273 523.6315789473574 L 603.734118518081 496.26315789481885 L 533.751803214795 468.8947368419683 L 494.06221628243816 441.5263157896378 L 470.3058989509268 414.1578947367873 L 455.7518215361799 386.7894736844567 L 446.8281355604662 359.42105263160624 L 441.8019719867442 332.05263157875567 L 439.61812808160687 304.68421052642515 L 439.44472360404825 277.3157894735747 L 440.7269851912889 249.9473684212441 L 443.002548008082 222.57894736839359 L 445.69213471765397 195.21052631554306 L 448.7822638948663 167.8421052632125 L 452.05960682494685 140.47368421036197 L 455.42758902215434 113.10526315803145 L 458.7887881123739 85.73684210518093 L 462.1715235672803 58.36842105285035 L 465.5896159673615 30.999999999999886" stroke-linejoin="bevel" stroke-miterlimit="10" stroke-width="2"/></g></g></g><g clip-path="url(#kDcLmLpPFHXW)"><g><g/><g><path fill="#ffffff" stroke="#e5e5e5" paint-order="fill stroke markers" d=" M 659.4375 15 L 760 15 L 760 55 L 659.4375 55 L 659.4375 15 Z" fill-opacity="0.95" stroke-linejoin="bevel" stroke-miterlimit="10" stroke-opacity="0.5"/><text fill="#444444" stroke="none" font-family="helvetica" font-size="10pt" font-style="normal" font-weight="normal" text-decoration="normal" x="694.4375" y="35" text-anchor="start" dominant-baseline="central">Temp-350</text><path fill="#79D151" stroke="#79D151" paint-order="fill stroke markers" d=" M 683.4375 35 A 4 4 0 1 1 683.4374980000001 34.99600000066666" stroke-linejoin="bevel" stroke-miterlimit="10"/><g><path fill="none" stroke="#79D151" paint-order="fill stroke markers" d=" M 669.4375 35 L 689.4375 35" stroke-linejoin="bevel" stroke-miterlimit="10" stroke-width="2"/></g></g></g></g><g/><g/><g><g fill="#444444"><path fill="none" stroke="black" paint-order="fill stroke markers" d=" M 61 577 L 770 577" stroke-linejoin="bevel" stroke-miterlimit="10"/><path fill="none" stroke="black" paint-order="fill stroke markers" d=" M 153 583 L 153 575" stroke-linejoin="bevel" stroke-miterlimit="10"/><path fill="none" stroke="black" paint-order="fill stroke markers" d=" M 271 583 L 271 575" stroke-linejoin="bevel" stroke-miterlimit="10"/><path fill="none" stroke="black" paint-order="fill stroke markers" d=" M 390 583 L 390 575" stroke-linejoin="bevel" stroke-miterlimit="10"/><path fill="none" stroke="black" paint-order="fill stroke markers" d=" M 509 583 L 509 575" stroke-linejoin="bevel" stroke-miterlimit="10"/><path fill="none" stroke="black" paint-order="fill stroke markers" d=" M 627 583 L 627 575" stroke-linejoin="bevel" stroke-miterlimit="10"/><path fill="none" stroke="black" paint-order="fill stroke markers" d=" M 746 583 L 746 575" stroke-linejoin="bevel" stroke-miterlimit="10"/><path fill="none" stroke="black" paint-order="fill stroke markers" d=" M 129 581 L 129 577" stroke-linejoin="bevel" stroke-miterlimit="10"/><path fill="none" stroke="black" paint-order="fill stroke markers" d=" M 105 581 L 105 577" stroke-linejoin="bevel" stroke-miterlimit="10"/><path fill="none" stroke="black" paint-order="fill stroke markers" d=" M 81 581 L 81 577" stroke-linejoin="bevel" stroke-miterlimit="10"/><path fill="none" stroke="black" paint-order="fill stroke markers" d=" M 153 581 L 153 577" stroke-linejoin="bevel" stroke-miterlimit="10"/><path fill="none" stroke="black" paint-order="fill stroke markers" d=" M 176 581 L 176 577" stroke-linejoin="bevel" stroke-miterlimit="10"/><path fill="none" stroke="black" paint-order="fill stroke markers" d=" M 200 581 L 200 577" stroke-linejoin="bevel" stroke-miterlimit="10"/><path fill="none" stroke="black" paint-order="fill stroke markers" d=" M 224 581 L 224 577" stroke-linejoin="bevel" stroke-miterlimit="10"/><path fill="none" stroke="black" paint-order="fill stroke markers" d=" M 248 581 L 248 577" stroke-linejoin="bevel" stroke-miterlimit="10"/><path fill="none" stroke="black" paint-order="fill stroke markers" d=" M 271 581 L 271 577" stroke-linejoin="bevel" stroke-miterlimit="10"/><path fill="none" stroke="black" paint-order="fill stroke markers" d=" M 295 581 L 295 577" stroke-linejoin="bevel" stroke-miterlimit="10"/><path fill="none" stroke="black" paint-order="fill stroke markers" d=" M 319 581 L 319 577" stroke-linejoin="bevel" stroke-miterlimit="10"/><path fill="none" stroke="black" paint-order="fill stroke markers" d=" M 343 581 L 343 577" stroke-linejoin="bevel" stroke-miterlimit="10"/><path fill="none" stroke="black" paint-order="fill stroke markers" d=" M 366 581 L 366 577" stroke-linejoin="bevel" stroke-miterlimit="10"/><path fill="none" stroke="black" paint-order="fill stroke markers" d=" M 390 581 L 390 577" stroke-linejoin="bevel" stroke-miterlimit="10"/><path fill="none" stroke="black" paint-order="fill stroke markers" d=" M 414 581 L 414 577" stroke-linejoin="bevel" stroke-miterlimit="10"/><path fill="none" stroke="black" paint-order="fill stroke markers" d=" M 437 581 L 437 577" stroke-linejoin="bevel" stroke-miterlimit="10"/><path fill="none" stroke="black" paint-order="fill stroke markers" d=" M 461 581 L 461 577" stroke-linejoin="bevel" stroke-miterlimit="10"/><path fill="none" stroke="black" paint-order="fill stroke markers" d=" M 485 581 L 485 577" stroke-linejoin="bevel" stroke-miterlimit="10"/><path fill="none" stroke="black" paint-order="fill stroke markers" d=" M 509 581 L 509 577" stroke-linejoin="bevel" stroke-miterlimit="10"/><path fill="none" stroke="black" paint-order="fill stroke markers" d=" M 532 581 L 532 577" stroke-linejoin="bevel" stroke-miterlimit="10"/><path fill="none" stroke="black" paint-order="fill stroke markers" d=" M 556 581 L 556 577" stroke-linejoin="bevel" stroke-miterlimit="10"/><path fill="none" stroke="black" paint-order="fill stroke markers" d=" M 580 581 L 580 577" stroke-linejoin="bevel" stroke-miterlimit="10"/><path fill="none" stroke="black" paint-order="fill stroke markers" d=" M 604 581 L 604 577" stroke-linejoin="bevel" stroke-miterlimit="10"/><path fill="none" stroke="black" paint-order="fill stroke markers" d=" M 627 581 L 627 577" stroke-linejoin="bevel" stroke-miterlimit="10"/><path fill="none" stroke="black" paint-order="fill stroke markers" d=" M 651 581 L 651 577" stroke-linejoin="bevel" stroke-miterlimit="10"/><path fill="none" stroke="black" paint-order="fill stroke markers" d=" M 675 581 L 675 577" stroke-linejoin="bevel" stroke-miterlimit="10"/><path fill="none" stroke="black" paint-order="fill stroke markers" d=" M 699 581 L 699 577" stroke-linejoin="bevel" stroke-miterlimit="10"/><path fill="none" stroke="black" paint-order="fill stroke markers" d=" M 722 581 L 722 577" stroke-linejoin="bevel" stroke-miterlimit="10"/><path fill="none" stroke="black" paint-order="fill stroke markers" d=" M 746 581 L 746 577" stroke-linejoin="bevel" stroke-miterlimit="10"/><path fill="" stroke="black" paint-order="fill stroke markers" d=" M 770 581 L 770 577" stroke-linejoin="bevel" stroke-miterlimit="10"/><g transform="translate(153,588) rotate(0,0,0)"><text fill="" stroke="none" font-family="helvetica" font-size="8pt" font-style="normal" font-weight="normal" text-decoration="normal" x="0" y="0" text-anchor="middle" dominant-baseline="hanging">1</text><g transform="rotate(0,0,0) translate(-153,-588) translate(271,588) rotate(0,0,0)"><text fill="" stroke="none" font-family="helvetica" font-size="8pt" font-style="normal" font-weight="normal" text-decoration="normal" x="0" y="0" text-anchor="middle" dominant-baseline="hanging">2</text><g transform="rotate(0,0,0) translate(-271,-588) translate(390,588) rotate(0,0,0)"><text fill="" stroke="none" font-family="helvetica" font-size="8pt" font-style="normal" font-weight="normal" text-decoration="normal" x="0" y="0" text-anchor="middle" dominant-baseline="hanging">3</text><g transform="rotate(0,0,0) translate(-390,-588) translate(509,588) rotate(0,0,0)"><text fill="" stroke="none" font-family="helvetica" font-size="8pt" font-style="normal" font-weight="normal" text-decoration="normal" x="0" y="0" text-anchor="middle" dominant-baseline="hanging">4</text><g transform="rotate(0,0,0) translate(-509,-588) translate(627,588) rotate(0,0,0)"><text fill="" stroke="none" font-family="helvetica" font-size="8pt" font-style="normal" font-weight="normal" text-decoration="normal" x="0" y="0" text-anchor="middle" dominant-baseline="hanging">5</text><g transform="rotate(0,0,0) translate(-627,-588) translate(746,588) rotate(0,0,0)"><text fill="" stroke="none" font-family="helvetica" font-size="8pt" font-style="normal" font-weight="normal" text-decoration="normal" x="0" y="0" text-anchor="middle" dominant-baseline="hanging">6</text><g transform="rotate(0,0,0) translate(-746,-588)"/></g></g></g></g></g></g></g></g><g><g fill="#444444"><path fill="none" stroke="black" paint-order="fill stroke markers" d=" M 61 577 L 61 5" stroke-linejoin="bevel" stroke-miterlimit="10"/><path fill="none" stroke="black" paint-order="fill stroke markers" d=" M 55 551 L 63 551" stroke-linejoin="bevel" stroke-miterlimit="10"/><path fill="none" stroke="black" paint-order="fill stroke markers" d=" M 55 447 L 63 447" stroke-linejoin="bevel" stroke-miterlimit="10"/><path fill="none" stroke="black" paint-order="fill stroke markers" d=" M 55 343 L 63 343" stroke-linejoin="bevel" stroke-miterlimit="10"/><path fill="none" stroke="black" paint-order="fill stroke markers" d=" M 55 239 L 63 239" stroke-linejoin="bevel" stroke-miterlimit="10"/><path fill="none" stroke="black" paint-order="fill stroke markers" d=" M 55 135 L 63 135" stroke-linejoin="bevel" stroke-miterlimit="10"/><path fill="none" stroke="black" paint-order="fill stroke markers" d=" M 55 31 L 63 31" stroke-linejoin="bevel" stroke-miterlimit="10"/><path fill="none" stroke="black" paint-order="fill stroke markers" d=" M 57 572 L 61 572" stroke-linejoin="bevel" stroke-miterlimit="10"/><path fill="none" stroke="black" paint-order="fill stroke markers" d=" M 57 551 L 61 551" stroke-linejoin="bevel" stroke-miterlimit="10"/><path fill="none" stroke="black" paint-order="fill stroke markers" d=" M 57 530 L 61 530" stroke-linejoin="bevel" stroke-miterlimit="10"/><path fill="none" stroke="black" paint-order="fill stroke markers" d=" M 57 509 L 61 509" stroke-linejoin="bevel" stroke-miterlimit="10"/><path fill="none" stroke="black" paint-order="fill stroke markers" d=" M 57 489 L 61 489" stroke-linejoin="bevel" stroke-miterlimit="10"/><path fill="none" stroke="black" paint-order="fill stroke markers" d=" M 57 468 L 61 468" stroke-linejoin="bevel" stroke-miterlimit="10"/><path fill="none" stroke="black" paint-order="fill stroke markers" d=" M 57 447 L 61 447" stroke-linejoin="bevel" stroke-miterlimit="10"/><path fill="none" stroke="black" paint-order="fill stroke markers" d=" M 57 426 L 61 426" stroke-linejoin="bevel" stroke-miterlimit="10"/><path fill="none" stroke="black" paint-order="fill stroke markers" d=" M 57 405 L 61 405" stroke-linejoin="bevel" stroke-miterlimit="10"/><path fill="none" stroke="black" paint-order="fill stroke markers" d=" M 57 385 L 61 385" stroke-linejoin="bevel" stroke-miterlimit="10"/><path fill="none" stroke="black" paint-order="fill stroke markers" d=" M 57 364 L 61 364" stroke-linejoin="bevel" stroke-miterlimit="10"/><path fill="none" stroke="black" paint-order="fill stroke markers" d=" M 57 343 L 61 343" stroke-linejoin="bevel" stroke-miterlimit="10"/><path fill="none" stroke="black" paint-order="fill stroke markers" d=" M 57 322 L 61 322" stroke-linejoin="bevel" stroke-miterlimit="10"/><path fill="none" stroke="black" paint-order="fill stroke markers" d=" M 57 301 L 61 301" stroke-linejoin="bevel" stroke-miterlimit="10"/><path fill="none" stroke="black" paint-order="fill stroke markers" d=" M 57 281 L 61 281" stroke-linejoin="bevel" stroke-miterlimit="10"/><path fill="none" stroke="black" paint-order="fill stroke markers" d=" M 57 260 L 61 260" stroke-linejoin="bevel" stroke-miterlimit="10"/><path fill="none" stroke="black" paint-order="fill stroke markers" d=" M 57 239 L 61 239" stroke-linejoin="bevel" stroke-miterlimit="10"/><path fill="none" stroke="black" paint-order="fill stroke markers" d=" M 57 218 L 61 218" stroke-linejoin="bevel" stroke-miterlimit="10"/><path fill="none" stroke="black" paint-order="fill stroke markers" d=" M 57 197 L 61 197" stroke-linejoin="bevel" stroke-miterlimit="10"/><path fill="none" stroke="black" paint-order="fill stroke markers" d=" M 57 177 L 61 177" stroke-linejoin="bevel" stroke-miterlimit="10"/><path fill="none" stroke="black" paint-order="fill stroke markers" d=" M 57 156 L 61 156" stroke-linejoin="bevel" stroke-miterlimit="10"/><path fill="none" stroke="black" paint-order="fill stroke markers" d=" M 57 135 L 61 135" stroke-linejoin="bevel" stroke-miterlimit="10"/><path fill="none" stroke="black" paint-order="fill stroke markers" d=" M 57 114 L 61 114" stroke-linejoin="bevel" stroke-miterlimit="10"/><path fill="none" stroke="black" paint-order="fill stroke markers" d=" M 57 93 L 61 93" stroke-linejoin="bevel" stroke-miterlimit="10"/><path fill="none" stroke="black" paint-order="fill stroke markers" d=" M 57 73 L 61 73" stroke-linejoin="bevel" stroke-miterlimit="10"/><path fill="none" stroke="black" paint-order="fill stroke markers" d=" M 57 52 L 61 52" stroke-linejoin="bevel" stroke-miterlimit="10"/><path fill="none" stroke="black" paint-order="fill stroke markers" d=" M 57 31 L 61 31" stroke-linejoin="bevel" stroke-miterlimit="10"/><path fill="" stroke="black" paint-order="fill stroke markers" d=" M 57 10 L 61 10" stroke-linejoin="bevel" stroke-miterlimit="10"/><g transform="translate(50,551) rotate(0,0,0)"><text fill="" stroke="none" font-family="helvetica" font-size="8pt" font-style="normal" font-weight="normal" text-decoration="normal" x="0" y="0" text-anchor="end" dominant-baseline="central">0.000e+0</text><g transform="rotate(0,0,0) translate(-50,-551) translate(50,447) rotate(0,0,0)"><text fill="" stroke="none" font-family="helvetica" font-size="8pt" font-style="normal" font-weight="normal" text-decoration="normal" x="0" y="0" text-anchor="end" dominant-baseline="central">2.000e-4</text><g transform="rotate(0,0,0) translate(-50,-447) translate(50,343) rotate(0,0,0)"><text fill="" stroke="none" font-family="helvetica" font-size="8pt" font-style="normal" font-weight="normal" text-decoration="normal" x="0" y="0" text-anchor="end" dominant-baseline="central">4.000e-4</text><g transform="rotate(0,0,0) translate(-50,-343) translate(50,239) rotate(0,0,0)"><text fill="" stroke="none" font-family="helvetica" font-size="8pt" font-style="normal" font-weight="normal" text-decoration="normal" x="0" y="0" text-anchor="end" dominant-baseline="central">6.000e-4</text><g transform="rotate(0,0,0) translate(-50,-239) translate(50,135) rotate(0,0,0)"><text fill="" stroke="none" font-family="helvetica" font-size="8pt" font-style="normal" font-weight="normal" text-decoration="normal" x="0" y="0" text-anchor="end" dominant-baseline="central">8.000e-4</text><g transform="rotate(0,0,0) translate(-50,-135) translate(50,31) rotate(0,0,0)"><text fill="" stroke="none" font-family="helvetica" font-size="8pt" font-style="normal" font-weight="normal" text-decoration="normal" x="0" y="0" text-anchor="end" dominant-baseline="central">1.000e-3</text><g transform="rotate(0,0,0) translate(-50,-31)"/></g></g></g></g></g></g></g></g><g clip-path="url(#LpDsrZrBVVNx)"><g/></g></g></g></svg>