<svg version="1.1" xmlns="http://www.w3.org/2000/svg" xmlns:xlink="http://www.w3.org/1999/xlink" width="800" height="600" style="width: 800px; height: 600px;"><defs><clipPath id="XyaAAyRWoFbm"><path fill="none" stroke="none" d=" M 61 5 L 770 5 L 770 577 L 61 577 L 61 5 Z"/></clipPath><clipPath id="uTxefJfQiihb"><path fill="none" stroke="none" d=" M 61 5 L 770 5 L 770 577 L 61 577 L 61 5 Z"/></clipPath><clipPath id="ThrwShaRrxGP"><path fill="none" stroke="none" d=" M 61 5 L 770 5 L 770 577 L 61 577 L 61 5 Z"/></clipPath><clipPath id="qCMaDNCnWiuU"><path fill="none" stroke="none" d=" M 61 5 L 770 5 L 770 577 L 61 577 L 61 5 Z"/></clipPath><clipPath id="EBwthLGSOAdF"><path fill="none" stroke="none" d=" M 61 5 L 770 5 L 770 577 L 61 577 L 61 5 Z"/></clipPath><clipPath id="AZSDGFNaLuID"><path fill="none" stroke="none" d=" M 61 5 L 770 5 L 770 577 L 61 577 L 61 5 Z"/></clipPath></defs><g><g transform="scale(1,1) translate(0.5,0.5)"><rect fill="#FFFFFF" stroke="none" x="0" y="0" width="800" height="600"/><rect fill="#ffffff" stroke="none" x="0" y="0" width="800" height="600"/><rect fill="#FFFFFF" stroke="none" x="61" y="5" width="709" height="572"/><rect fill="#ffffff" stroke="none" x="61" y="5" width="709" height="572"/><g><rect fill="none" stroke="#e5e5e5" x="61" y="5" width="709" height="572" stroke-linejoin="bevel" stroke-miterlimit="10"/></g><g clip-path="url(#XyaAAyRWoFbm)"><g><g><path fill="none" stroke="#e5e5e5" paint-order="fill stroke markers" d=" M 157 577 L 157 5" stroke-linejoin="bevel" stroke-miterlimit="10"/><path fill="none" stroke="#e5e5e5" paint-order="fill stroke markers" d=" M 280 577 L 280 5" stroke-linejoin="bevel" stroke-miterlimit="10"/><path fill="none" stroke="#e5e5e5" paint-order="fill stroke markers" d=" M 403 577 L 403 5" stroke-linejoin="bevel" stroke-miterlimit="10"/><path fill="none" stroke="#e5e5e5" paint-order="fill stroke markers" d=" M 527 577 L 527 5" stroke-linejoin="bevel" stroke-miterlimit="10"/><path fill="none" stroke="#e5e5e5" paint-order="fill stroke markers" d=" M 650 577 L 650 5" stroke-linejoin="bevel" stroke-miterlimit="10"/></g></g></g><g clip-path="url(#uTxefJfQiihb)"><g><g><path fill="none" stroke="#e5e5e5" paint-order="fill stroke markers" d=" M 61 551 L 770 551" stroke-linejoin="bevel" stroke-miterlimit="10"/><path fill="none" stroke="#e5e5e5" paint-order="fill stroke markers" d=" M 61 447 L 770 447" stroke-linejoin="bevel" stroke-miterlimit="10"/><path fill="none" stroke="#e5e5e5" paint-order="fill stroke markers" d=" M 61 343 L 770 343" stroke-linejoin="bevel" stroke-miterlimit="10"/><path fill="none" stroke="#e5e5e5" paint-order="fill stroke markers" d=" M 61 239 L 770 239" stroke-linejoin="bevel" stroke-miterlimit="10"/><path fill="none" stroke="#e5e5e5" paint-order="fill stroke markers" d=" M 61 135 L 770 135" stroke-linejoin="bevel" stroke-miterlimit="10"/><path fill="none" stroke="#e5e5e5" paint-order="fill stroke markers" d=" M 61 31 L 770 31" stroke-linejoin="bevel" stroke-miterlimit="10"/></g></g></g><g clip-path="url(#ThrwShaRrxGP)"><g><g><path fill="none" stroke="none"/><path fill="#22A784" stroke="#22A784" paint-order="fill stroke markers" d=" M 96.22727272727276 550.9999999999999 A 3 3 0 1 1 96.2272712272729 550.9970000004998" stroke-linejoin="bevel" stroke-miterlimit="10"/><path fill="#22A784" stroke="#22A784" paint-order="fill stroke markers" d=" M 740.7727272727273 523.6315789473574 A 3 3 0 1 1 740.7727257727274 523.6285789478574" stroke-linejoin="bevel" stroke-miterlimit="10"/><path fill="#22A784" stroke="#22A784" paint-order="fill stroke markers" d=" M 601.7372220604151 496.26315789481885 A 3 3 0 1 1 601.7372205604153 496.26015789531886" stroke-linejoin="bevel" stroke-miterlimit="10"/><path fill="#22A784" stroke="#22A784" paint-order="fill stroke markers" d=" M 535.9660823704825 468.8947368419683 A 3 3 0 1 1 535.9660808704826 468.89173684246833" stroke-linejoin="bevel" stroke-miterlimit="10"/><path fill="#22A784" stroke="#22A784" paint-order="fill stroke markers" d=" M 498.8974313861883 441.5263157896378 A 3 3 0 1 1 498.89742988618843 441.5233157901378" stroke-linejoin="bevel" stroke-miterlimit="10"/><path fill="#22A784" stroke="#22A784" paint-order="fill stroke markers" d=" M 476.1872500286194 414.1578947367873 A 3 3 0 1 1 476.18724852861953 414.1548947372873" stroke-linejoin="bevel" stroke-miterlimit="10"/><path fill="#22A784" stroke="#22A784" paint-order="fill stroke markers" d=" M 461.4809098972375 386.7894736844567 A 3 3 0 1 1 461.4809083972376 386.7864736849567" stroke-linejoin="bevel" stroke-miterlimit="10"/><path fill="#22A784" stroke="#22A784" paint-order="fill stroke markers" d=" M 451.69559808768037 359.42105263160624 A 3 3 0 1 1 451.6955965876805 359.41805263210625" stroke-linejoin="bevel" stroke-miterlimit="10"/><path fill="#22A784" stroke="#22A784" paint-order="fill stroke markers" d=" M 445.5863646606644 332.05263157875567 A 3 3 0 1 1 445.5863631606645 332.0496315792557" stroke-linejoin="bevel" stroke-miterlimit="10"/><path fill="#22A784" stroke="#22A784" paint-order="fill stroke markers" d=" M 442.3523496828502 304.68421052642515 A 3 3 0 1 1 442.35234818285033 304.68121052692516" stroke-linejoin="bevel" stroke-miterlimit="10"/><path fill="#22A784" stroke="#22A784" paint-order="fill stroke markers" d=" M 441.2882959305116 277.3157894735747 A 3 3 0 1 1 441.2882944305117 277.3127894740747" stroke-linejoin="bevel" stroke-miterlimit="10"/><path fill="#22A784" stroke="#22A784" paint-order="fill stroke markers" d=" M 441.7178472755474 249.9473684212441 A 3 3 0 1 1 441.7178457755475 249.94436842174412" stroke-linejoin="bevel" stroke-miterlimit="10"/><path fill="#22A784" stroke="#22A784" paint-order="fill stroke markers" d=" M 443.2332163077367 222.57894736839359 A 3 3 0 1 1 443.23321480773683 222.5759473688936" stroke-linejoin="bevel" stroke-miterlimit="10"/><path fill="#22A784" stroke="#22A784" paint-order="fill stroke markers" d=" M 445.4332240990907 195.21052631554306 A 3 3 0 1 1 445.4332225990908 195.20752631604307" stroke-linejoin="bevel" stroke-miterlimit="10"/><path fill="#22A784" stroke="#22A784" paint-order="fill stroke markers" d=" M 448.12675334347944 167.8421052632125 A 3 3 0 1 1 448.12675184347955 167.8391052637125" stroke-linejoin="bevel" stroke-miterlimit="10"/><path fill="#22A784" stroke="#22A784" paint-order="fill stroke markers" d=" M 451.0277889299315 140.47368421036197 A 3 3 0 1 1 451.0277874299316 140.47068421086198" stroke-linejoin="bevel" stroke-miterlimit="10"/><path fill="#22A784" stroke="#22A784" paint-order="fill stroke markers" d=" M 454.1291936976373 113.10526315803145 A 3 3 0 1 1 454.1291921976374 113.10226315853144" stroke-linejoin="bevel" stroke-miterlimit="10"/><path fill="#22A784" stroke="#22A784" paint-order="fill stroke markers" d=" M 457.32135495465315 85.73684210518093 A 3 3 0 1 1 457.32135345465326 85.73384210568092" stroke-linejoin="bevel" stroke-miterlimit="10"/><path fill="#22A784" stroke="#22A784" paint-order="fill stroke markers" d=" M 460.6553782969011 58.36842105285035 A 3 3 0 1 1 460.65537679690124 58.36542105335035" stroke-linejoin="bevel" stroke-miterlimit="10"/><path fill="#22A784" stroke="#22A784" paint-order="fill stroke markers" d=" M 463.89564930456106 30.999999999999886 A 3 3 0 1 1 463.8956478045612 30.997000000499884" stroke-linejoin="bevel" stroke-miterlimit="10"/></g></g></g><g clip-path="url(#qCMaDNCnWiuU)"><g><g><path fill="none" stroke="none"/><path fill="none" stroke="#22A784" paint-order="fill stroke markers" d=" M 93.22727272727276 550.9999999999999 L 737.7727272727273 523.6315789473574 L 598.7372220604151 496.26315789481885 L 532.9660823704825 468.8947368419683 L 495.8974313861883 441.5263157896378 L 473.1872500286194 414.1578947367873 L 458.4809098972375 386.7894736844567 L 448.69559808768037 359.42105263160624 L 442.5863646606644 332.05263157875567 L 439.3523496828502 304.68421052642515 L 438.2882959305116 277.3157894735747 L 438.7178472755474 249.9473684212441 L 440.2332163077367 222.57894736839359 L 442.4332240990907 195.21052631554306 L 445.12675334347944 167.8421052632125 L 448.0277889299315 140.47368421036197 L 451.1291936976373 113.10526315803145 L 454.32135495465315 85.73684210518093 L 457.6553782969011 58.36842105285035 L 460.89564930456106 30.999999999999886" stroke-linejoin="bevel" stroke-miterlimit="10" stroke-width="2"/></g></g></g><g clip-path="url(#EBwthLGSOAdF)"><g><g/><g><path fill="#ffffff" stroke="#e5e5e5" paint-order="fill stroke markers" d=" M 659.4375 15 L 760 15 L 760 55 L 659.4375 55 L 659.4375 15 Z" fill-opacity="0.95" stroke-linejoin="bevel" stroke-miterlimit="10" stroke-opacity="0.5"/><text fill="#444444" stroke="none" font-family="helvetica" font-size="10pt" font-style="normal" font-weight="normal" text-decoration="normal" x="694.4375" y="35" text-anchor="start" dominant-baseline="central">Temp-400</text><path fill="#22A784" stroke="#22A784" paint-order="fill stroke markers" d=" M 683.4375 35 A 4 4 0 1 1 683.4374980000001 34.99600000066666" stroke-linejoin="bevel" stroke-miterlimit="10"/><g><path fill="none" stroke="#22A784" paint-order="fill stroke markers" d=" M 669.4375 35 L 689.4375 35" stroke-linejoin="bevel" stroke-miterlimit="10" stroke-width="2"/></g></g></g></g><g/><g/><g><g fill="#444444"><path fill="none" stroke="black" paint-order="fill stroke markers" d=" M 61 577 L 770 577" stroke-linejoin="bevel" stroke-miterlimit="10"/><path fill="none" stroke="black" paint-order="fill stroke markers" d=" M 157 583 L 157 575" stroke-linejoin="bevel" stroke-miterlimit="10"/><path fill="none" stroke="black" paint-order="fill stroke markers" d=" M 280 583 L 280 575" stroke-linejoin="bevel" stroke-miterlimit="10"/><path fill="none" stroke="black" paint-order="fill stroke markers" d=" M 403 583 L 403 575" stroke-linejoin="bevel" stroke-miterlimit="10"/><path fill="none" stroke="black" paint-order="fill stroke markers" d=" M 527 583 L 527 575" stroke-linejoin="bevel" stroke-miterlimit="10"/><path fill="none" stroke="black" paint-order="fill stroke markers" d=" M 650 583 L 650 575" stroke-linejoin="bevel" stroke-miterlimit="10"/><path fill="none" stroke="black" paint-order="fill stroke markers" d=" M 132 581 L 132 577" stroke-linejoin="bevel" stroke-miterlimit="10"/><path fill="none" stroke="black" paint-order="fill stroke markers" d=" M 107 581 L 107 577" stroke-linejoin="bevel" stroke-miterlimit="10"/><path fill="none" stroke="black" paint-order="fill stroke markers" d=" M 83 581 L 83 577" stroke-linejoin="bevel" stroke-miterlimit="10"/><path fill="none" stroke="black" paint-order="fill stroke markers" d=" M 157 581 L 157 577" stroke-linejoin="bevel" stroke-miterlimit="10"/><path fill="none" stroke="black" paint-order="fill stroke markers" d=" M 181 581 L 181 577" stroke-linejoin="bevel" stroke-miterlimit="10"/><path fill="none" stroke="black" paint-order="fill stroke markers" d=" M 206 581 L 206 577" stroke-linejoin="bevel" stroke-miterlimit="10"/><path fill="none" stroke="black" paint-order="fill stroke markers" d=" M 231 581 L 231 577" stroke-linejoin="bevel" stroke-miterlimit="10"/><path fill="none" stroke="black" paint-order="fill stroke markers" d=" M 255 581 L 255 577" stroke-linejoin="bevel" stroke-miterlimit="10"/><path fill="none" stroke="black" paint-order="fill stroke markers" d=" M 280 581 L 280 577" stroke-linejoin="bevel" stroke-miterlimit="10"/><path fill="none" stroke="black" paint-order="fill stroke markers" d=" M 305 581 L 305 577" stroke-linejoin="bevel" stroke-miterlimit="10"/><path fill="none" stroke="black" paint-order="fill stroke markers" d=" M 329 581 L 329 577" stroke-linejoin="bevel" stroke-miterlimit="10"/><path fill="none" stroke="black" paint-order="fill stroke markers" d=" M 354 581 L 354 577" stroke-linejoin="bevel" stroke-miterlimit="10"/><path fill="none" stroke="black" paint-order="fill stroke markers" d=" M 379 581 L 379 577" stroke-linejoin="bevel" stroke-miterlimit="10"/><path fill="none" stroke="black" paint-order="fill stroke markers" d=" M 403 581 L 403 577" stroke-linejoin="bevel" stroke-miterlimit="10"/><path fill="none" stroke="black" paint-order="fill stroke markers" d=" M 428 581 L 428 577" stroke-linejoin="bevel" stroke-miterlimit="10"/><path fill="none" stroke="black" paint-order="fill stroke markers" d=" M 453 581 L 453 577" stroke-linejoin="bevel" stroke-miterlimit="10"/><path fill="none" stroke="black" paint-order="fill stroke markers" d=" M 477 581 L 477 577" stroke-linejoin="bevel" stroke-miterlimit="10"/><path fill="none" stroke="black" paint-order="fill stroke markers" d=" M 502 581 L 502 577" stroke-linejoin="bevel" stroke-miterlimit="10"/><path fill="none" stroke="black" paint-order="fill stroke markers" d=" M 527 581 L 527 577" stroke-linejoin="bevel" stroke-miterlimit="10"/><path fill="none" stroke="black" paint-order="fill stroke markers" d=" M 552 581 L 552 577" stroke-linejoin="bevel" stroke-miterlimit="10"/><path fill="none" stroke="black" paint-order="fill stroke markers" d=" M 576 581 L 576 577" stroke-linejoin="bevel" stroke-miterlimit="10"/><path fill="none" stroke="black" paint-order="fill stroke markers" d=" M 601 581 L 601 577" stroke-linejoin="bevel" stroke-miterlimit="10"/><path fill="none" stroke="black" paint-order="fill stroke markers" d=" M 626 581 L 626 577" stroke-linejoin="bevel" stroke-miterlimit="10"/><path fill="none" stroke="black" paint-order="fill stroke markers" d=" M 650 581 L 650 577" stroke-linejoin="bevel" stroke-miterlimit="10"/><path fill="none" stroke="black" paint-order="fill stroke markers" d=" M 675 581 L 675 577" stroke-linejoin="bevel" stroke-miterlimit="10"/><path fill="none" stroke="black" paint-order="fill stroke markers" d=" M 700 581 L 700 577" stroke-linejoin="bevel" stroke-miterlimit="10"/><path fill="none" stroke="black" paint-order="fill stroke markers" d=" M 724 581 L 724 577" stroke-linejoin="bevel" stroke-miterlimit="10"/><path fill="" stroke="black" paint-order="fill stroke markers" d=" M 749 581 L 749 577" stroke-linejoin="bevel" stroke-miterlimit="10"/><g transform="translate(157,588) rotate(0,0,0)"><text fill="" stroke="none" font-family="helvetica" font-size="8pt" font-style="normal" font-weight="normal" text-decoration="normal" x="0" y="0" text-anchor="middle" dominant-baseline="hanging">1</text><g transform="rotate(0,0,0) translate(-157,-588) translate(280,588) rotate(0,0,0)"><text fill="" stroke="none" font-family="helvetica" font-size="8pt" font-style="normal" font-weight="normal" text-decoration="normal" x="0" y="0" text-anchor="middle" dominant-baseline="hanging">2</text><g transform="rotate(0,0,0) translate(-280,-588) translate(403,588) rotate(0,0,0)"><text fill="" stroke="none" font-family="helvetica" font-size="8pt" font-style="normal" font-weight="normal" text-decoration="normal" x="0" y="0" text-anchor="middle" dominant-baseline="hanging">3</text><g transform="rotate(0,0,0) translate(-403,-588) translate(527,588) rotate(0,0,0)"><text fill="" stroke="none" font-family="helvetica" font-size="8pt" font-style="normal" font-weight="normal" text-decoration="normal" x="0" y="0" text-anchor="middle" dominant-baseline="hanging">4</text><g transform="rotate(0,0,0) translate(-527,-588) translate(650,588) rotate(0,0,0)"><text fill="" stroke="none" font-family="helvetica" font-size="8pt" font-style="normal" font-weight="normal" text-decoration="normal" x="0" y="0" text-anchor="middle" dominant-baseline="hanging">5</text><g transform="rotate(0,0,0) translate(-650,-588)"/></g></g></g></g></g></g></g><g><g fill="#444444"><path fill="none" stroke="black" paint-order="fill stroke markers" d=" M 61 577 L 61 5" stroke-linejoin="bevel" stroke-miterlimit="10"/><path fill="none" stroke="black" paint-order="fill stroke markers" d=" M 55 551 L 63 551" stroke-linejoin="bevel" stroke-miterlimit="10"/><path fill="none" stroke="black" paint-order="fill stroke markers" d=" M 55 447 L 63 447" stroke-linejoin="bevel" stroke-miterlimit="10"/><path fill="none" stroke="black" paint-order="fill stroke markers" d=" M 55 343 L 63 343" stroke-linejoin="bevel" stroke-miterlimit="10"/><path fill="none" stroke="black" paint-order="fill stroke markers" d=" M 55 239 L 63 239" stroke-linejoin="bevel" stroke-miterlimit="10"/><path fill="none" stroke="black" paint-order="fill stroke markers" d=" M 55 135 L 63 135" stroke-linejoin="bevel" stroke-miterlimit="10"/><path fill="none" stroke="black" paint-order="fill stroke markers" d=" M 55 31 L 63 31" stroke-linejoin="bevel" stroke-miterlimit="10"/><path fill="none" stroke="black" paint-order="fill stroke markers" d=" M 57 572 L 61 572" stroke-linejoin="bevel" stroke-miterlimit="10"/><path fill="none" stroke="black" paint-order="fill stroke markers" d=" M 57 551 L 61 551" stroke-linejoin="bevel" stroke-miterlimit="10"/><path fill="none" stroke="black" paint-order="fill stroke markers" d=" M 57 530 L 61 530" stroke-linejoin="bevel" stroke-miterlimit="10"/><path fill="none" stroke="black" paint-order="fill stroke markers" d=" M 57 509 L 61 509" stroke-linejoin="bevel" stroke-miterlimit="10"/><path fill="none" stroke="black" paint-order="fill stroke markers" d=" M 57 489 L 61 489" stroke-linejoin="bevel" stroke-miterlimit="10"/><path fill="none" stroke="black" paint-order="fill stroke markers" d=" M 57 468 L 61 468" stroke-linejoin="bevel" stroke-miterlimit="10"/><path fill="none" stroke="black" paint-order="fill stroke markers" d=" M 57 447 L 61 447" stroke-linejoin="bevel" stroke-miterlimit="10"/><path fill="none" stroke="black" paint-order="fill stroke markers" d=" M 57 426 L 61 426" stroke-linejoin="bevel" stroke-miterlimit="10"/><path fill="none" stroke="black" paint-order="fill stroke markers" d=" M 57 405 L 61 405" stroke-linejoin="bevel" stroke-miterlimit="10"/><path fill="none" stroke="black" paint-order="fill stroke markers" d=" M 57 385 L 61 385" stroke-linejoin="bevel" stroke-miterlimit="10"/><path fill="none" stroke="black" paint-order="fill stroke markers" d=" M 57 364 L 61 364" stroke-linejoin="bevel" stroke-miterlimit="10"/><path fill="none" stroke="black" paint-order="fill stroke markers" d=" M 57 343 L 61 343" stroke-linejoin="bevel" stroke-miterlimit="10"/><path fill="none" stroke="black" paint-order="fill stroke markers" d=" M 57 322 L 61 322" stroke-linejoin="bevel" stroke-miterlimit="10"/><path fill="none" stroke="black" paint-order="fill stroke markers" d=" M 57 301 L 61 301" stroke-linejoin="bevel" stroke-miterlimit="10"/><path fill="none" stroke="black" paint-order="fill stroke markers" d=" M 57 281 L 61 281" stroke-linejoin="bevel" stroke-miterlimit="10"/><path fill="none" stroke="black" paint-order="fill stroke markers" d=" M 57 260 L 61 260" stroke-linejoin="bevel" stroke-miterlimit="10"/><path fill="none" stroke="black" paint-order="fill stroke markers" d=" M 57 239 L 61 239" stroke-linejoin="bevel" stroke-miterlimit="10"/><path fill="none" stroke="black" paint-order="fill stroke markers" d=" M 57 218 L 61 218" stroke-linejoin="bevel" stroke-miterlimit="10"/><path fill="none" stroke="black" paint-order="fill stroke markers" d=" M 57 197 L 61 197" stroke-linejoin="bevel" stroke-miterlimit="10"/><path fill="none" stroke="black" paint-order="fill stroke markers" d=" M 57 177 L 61 177" stroke-linejoin="bevel" stroke-miterlimit="10"/><path fill="none" stroke="black" paint-order="fill stroke markers" d=" M 57 156 L 61 156" stroke-linejoin="bevel" stroke-miterlimit="10"/><path fill="none" stroke="black" paint-order="fill stroke markers" d=" M 57 135 L 61 135" stroke-linejoin="bevel" stroke-miterlimit="10"/><path fill="none" stroke="black" paint-order="fill stroke markers" d=" M 57 114 L 61 114" stroke-linejoin="bevel" stroke-miterlimit="10"/><path fill="none" stroke="black" paint-order="fill stroke markers" d=" M 57 93 L 61 93" stroke-linejoin="bevel" stroke-miterlimit="10"/><path fill="none" stroke="black" paint-order="fill stroke markers" d=" M 57 73 L 61 73" stroke-linejoin="bevel" stroke-miterlimit="10"/><path fill="none" stroke="black" paint-order="fill stroke markers" d=" M 57 52 L 61 52" stroke-linejoin="bevel" stroke-miterlimit="10"/><path fill="none" stroke="black" paint-order="fill stroke markers" d=" M 57 31 L 61 31" stroke-linejoin="bevel" stroke-miterlimit="10"/><path fill="" stroke="black" paint-order="fill stroke markers" d=" M 57 10 L 61 10" stroke-linejoin="bevel" stroke-miterlimit="10"/><g transform="translate(50,551) rotate(0,0,0)"><text fill="" stroke="none" font-family="helvetica" font-size="8pt" font-style="normal" font-weight="normal" text-decoration="normal" x="0" y="0" text-anchor="end" dominant-baseline="central">0.000e+0</text><g transform="rotate(0,0,0) translate(-50,-551) translate(50,447) rotate(0,0,0)"><text fill="" stroke="none" font-family="helvetica" font-size="8pt" font-style="normal" font-weight="normal" text-decoration="normal" x="0" y="0" text-anchor="end" dominant-baseline="central">2.000e-4</text><g transform="rotate(0,0,0) translate(-50,-447) translate(50,343) rotate(0,0,0)"><text fill="" stroke="none" font-family="helvetica" font-size="8pt" font-style="normal" font-weight="normal" text-decoration="normal" x="0" y="0" text-anchor="end" dominant-baseline="central">4.000e-4</text><g transform="rotate(0,0,0) translate(-50,-343) translate(50,239) rotate(0,0,0)"><text fill="" stroke="none" font-family="helvetica" font-size="8pt" font-style="normal" font-weight="normal" text-decoration="normal" x="0" y="0" text-anchor="end" dominant-baseline="central">6.000e-4</text><g transform="rotate(0,0,0) translate(-50,-239) translate(50,135) rotate(0,0,0)"><text fill="" stroke="none" font-family="helvetica" font-size="8pt" font-style="normal" font-weight="normal" text-decoration="normal" x="0" y="0" text-anchor="end" dominant-baseline="central">8.000e-4</text><g transform="rotate(0,0,0) translate(-50,-135) translate(50,31) rotate(0,0,0)"><text fill="" stroke="none" font-family="helvetica" font-size="8pt" font-style="normal" font-weight="normal" text-decoration="normal" x="0" y="0" text-anchor="end" dominant-baseline="central">1.000e-3</text><g transform="rotate(0,0,0) translate(-50,-31)"/></g></g></g></g></g></g></g></g><g clip-path="url(#AZSDGFNaLuID)"><g/></g></g></g></svg>