<svg version="1.1" xmlns="http://www.w3.org/2000/svg" xmlns:xlink="http://www.w3.org/1999/xlink" width="800" height="600" style="width: 800px; height: 600px;"><defs><clipPath id="qudKHkXhEFOT"><path fill="none" stroke="none" d=" M 61 5 L 770 5 L 770 577 L 61 577 L 61 5 Z"/></clipPath><clipPath id="TRWHDQKtQdqm"><path fill="none" stroke="none" d=" M 61 5 L 770 5 L 770 577 L 61 577 L 61 5 Z"/></clipPath><clipPath id="gPiLvwKXPPeR"><path fill="none" stroke="none" d=" M 61 5 L 770 5 L 770 577 L 61 577 L 61 5 Z"/></clipPath><clipPath id="QQKfbJEPGggl"><path fill="none" stroke="none" d=" M 61 5 L 770 5 L 770 577 L 61 577 L 61 5 Z"/></clipPath><clipPath id="qVZqkpzzCDHM"><path fill="none" stroke="none" d=" M 61 5 L 770 5 L 770 577 L 61 577 L 61 5 Z"/></clipPath><clipPath id="XusCNGaJHJUx"><path fill="none" stroke="none" d=" M 61 5 L 770 5 L 770 577 L 61 577 L 61 5 Z"/></clipPath></defs><g><g transform="scale(1,1) translate(0.5,0.5)"><rect fill="#FFFFFF" stroke="none" x="0" y="0" width="800" height="600"/><rect fill="#ffffff" stroke="none" x="0" y="0" width="800" height="600"/><rect fill="#FFFFFF" stroke="none" x="61" y="5" width="709" height="572"/><rect fill="#ffffff" stroke="none" x="61" y="5" width="709" height="572"/><g><rect fill="none" stroke="#e5e5e5" x="61" y="5" width="709" height="572" stroke-linejoin="bevel" stroke-miterlimit="10"/></g><g clip-path="url(#qudKHkXhEFOT)"><g><g><path fill="none" stroke="#e5e5e5" paint-order="fill stroke markers" d=" M 164 577 L 164 5" stroke-linejoin="bevel" stroke-miterlimit="10"/><path fill="none" stroke="#e5e5e5" paint-order="fill stroke markers" d=" M 295 577 L 295 5" stroke-linejoin="bevel" stroke-miterlimit="10"/><path fill="none" stroke="#e5e5e5" paint-order="fill stroke markers" d=" M 427 577 L 427 5" stroke-linejoin="bevel" stroke-miterlimit="10"/><path fill="none" stroke="#e5e5e5" paint-order="fill stroke markers" d=" M 558 577 L 558 5" stroke-linejoin="bevel" stroke-miterlimit="10"/><path fill="none" stroke="#e5e5e5" paint-order="fill stroke markers" d=" M 689 577 L 689 5" stroke-linejoin="bevel" stroke-miterlimit="10"/></g></g></g><g clip-path="url(#TRWHDQKtQdqm)"><g><g><path fill="none" stroke="#e5e5e5" paint-order="fill stroke markers" d=" M 61 551 L 770 551" stroke-linejoin="bevel" stroke-miterlimit="10"/><path fill="none" stroke="#e5e5e5" paint-order="fill stroke markers" d=" M 61 447 L 770 447" stroke-linejoin="bevel" stroke-miterlimit="10"/><path fill="none" stroke="#e5e5e5" paint-order="fill stroke markers" d=" M 61 343 L 770 343" stroke-linejoin="bevel" stroke-miterlimit="10"/><path fill="none" stroke="#e5e5e5" paint-order="fill stroke markers" d=" M 61 239 L 770 239" stroke-linejoin="bevel" stroke-miterlimit="10"/><path fill="none" stroke="#e5e5e5" paint-order="fill stroke markers" d=" M 61 135 L 770 135" stroke-linejoin="bevel" stroke-miterlimit="10"/><path fill="none" stroke="#e5e5e5" paint-order="fill stroke markers" d=" M 61 31 L 770 31" stroke-linejoin="bevel" stroke-miterlimit="10"/></g></g></g><g clip-path="url(#gPiLvwKXPPeR)"><g><g><path fill="none" stroke="none"/><path fill="#29788E" stroke="#29788E" paint-order="fill stroke markers" d=" M 96.22727272727272 550.9999999999999 A 3 3 0 1 1 96.22727122727285 550.9970000004998" stroke-linejoin="bevel" stroke-miterlimit="10"/><path fill="#29788E" stroke="#29788E" paint-order="fill stroke markers" d=" M 740.7727272727273 523.6315789473574 A 3 3 0 1 1 740.7727257727274 523.6285789478574" stroke-linejoin="bevel" stroke-miterlimit="10"/><path fill="#29788E" stroke="#29788E" paint-order="fill stroke markers" d=" M 605.685138372765 496.26315789481885 A 3 3 0 1 1 605.6851368727652 496.26015789531886" stroke-linejoin="bevel" stroke-miterlimit="10"/><path fill="#29788E" stroke="#29788E" paint-order="fill stroke markers" d=" M 544.2318032306997 468.8947368419683 A 3 3 0 1 1 544.2318017306999 468.89173684246833" stroke-linejoin="bevel" stroke-miterlimit="10"/><path fill="#29788E" stroke="#29788E" paint-order="fill stroke markers" d=" M 509.5820951042748 441.5263157896378 A 3 3 0 1 1 509.5820936042749 441.5233157901378" stroke-linejoin="bevel" stroke-miterlimit="10"/><path fill="#29788E" stroke="#29788E" paint-order="fill stroke markers" d=" M 487.84555904128194 414.1578947367873 A 3 3 0 1 1 487.84555754128206 414.1548947372873" stroke-linejoin="bevel" stroke-miterlimit="10"/><path fill="#29788E" stroke="#29788E" paint-order="fill stroke markers" d=" M 473.133583270839 386.7894736844567 A 3 3 0 1 1 473.1335817708391 386.7864736849567" stroke-linejoin="bevel" stroke-miterlimit="10"/><path fill="#29788E" stroke="#29788E" paint-order="fill stroke markers" d=" M 462.9949055270677 359.42105263160624 A 3 3 0 1 1 462.99490402706783 359.41805263210625" stroke-linejoin="bevel" stroke-miterlimit="10"/><path fill="#29788E" stroke="#29788E" paint-order="fill stroke markers" d=" M 456.4122486914133 332.05263157875567 A 3 3 0 1 1 456.4122471914134 332.0496315792557" stroke-linejoin="bevel" stroke-miterlimit="10"/><path fill="#29788E" stroke="#29788E" paint-order="fill stroke markers" d=" M 452.68210770564303 304.68421052642515 A 3 3 0 1 1 452.68210620564315 304.68121052692516" stroke-linejoin="bevel" stroke-miterlimit="10"/><path fill="#29788E" stroke="#29788E" paint-order="fill stroke markers" d=" M 451.09807394917476 277.3157894735747 A 3 3 0 1 1 451.0980724491749 277.3127894740747" stroke-linejoin="bevel" stroke-miterlimit="10"/><path fill="#29788E" stroke="#29788E" paint-order="fill stroke markers" d=" M 451.1015394913336 249.9473684212441 A 3 3 0 1 1 451.1015379913337 249.94436842174412" stroke-linejoin="bevel" stroke-miterlimit="10"/><path fill="#29788E" stroke="#29788E" paint-order="fill stroke markers" d=" M 452.1881274530642 222.57894736839359 A 3 3 0 1 1 452.18812595306434 222.5759473688936" stroke-linejoin="bevel" stroke-miterlimit="10"/><path fill="#29788E" stroke="#29788E" paint-order="fill stroke markers" d=" M 454.15009263144293 195.21052631554306 A 3 3 0 1 1 454.15009113144305 195.20752631604307" stroke-linejoin="bevel" stroke-miterlimit="10"/><path fill="#29788E" stroke="#29788E" paint-order="fill stroke markers" d=" M 456.56735511884426 167.8421052632125 A 3 3 0 1 1 456.5673536188444 167.8391052637125" stroke-linejoin="bevel" stroke-miterlimit="10"/><path fill="#29788E" stroke="#29788E" paint-order="fill stroke markers" d=" M 459.2920205620597 140.47368421036197 A 3 3 0 1 1 459.2920190620598 140.47068421086198" stroke-linejoin="bevel" stroke-miterlimit="10"/><path fill="#29788E" stroke="#29788E" paint-order="fill stroke markers" d=" M 462.230800312707 113.10526315803145 A 3 3 0 1 1 462.2307988127071 113.10226315853144" stroke-linejoin="bevel" stroke-miterlimit="10"/><path fill="#29788E" stroke="#29788E" paint-order="fill stroke markers" d=" M 465.47070757796195 85.73684210518093 A 3 3 0 1 1 465.47070607796206 85.73384210568092" stroke-linejoin="bevel" stroke-miterlimit="10"/><path fill="#29788E" stroke="#29788E" paint-order="fill stroke markers" d=" M 468.5674973183893 58.36842105285035 A 3 3 0 1 1 468.56749581838943 58.36542105335035" stroke-linejoin="bevel" stroke-miterlimit="10"/><path fill="#29788E" stroke="#29788E" paint-order="fill stroke markers" d=" M 471.93347538758275 30.999999999999886 A 3 3 0 1 1 471.93347388758286 30.997000000499884" stroke-linejoin="bevel" stroke-miterlimit="10"/></g></g></g><g clip-path="url(#QQKfbJEPGggl)"><g><g><path fill="none" stroke="none"/><path fill="none" stroke="#29788E" paint-order="fill stroke markers" d=" M 93.22727272727272 550.9999999999999 L 737.7727272727273 523.6315789473574 L 602.685138372765 496.26315789481885 L 541.2318032306997 468.8947368419683 L 506.5820951042748 441.5263157896378 L 484.84555904128194 414.1578947367873 L 470.133583270839 386.7894736844567 L 459.9949055270677 359.42105263160624 L 453.4122486914133 332.05263157875567 L 449.68210770564303 304.68421052642515 L 448.09807394917476 277.3157894735747 L 448.1015394913336 249.9473684212441 L 449.1881274530642 222.57894736839359 L 451.15009263144293 195.21052631554306 L 453.56735511884426 167.8421052632125 L 456.2920205620597 140.47368421036197 L 459.230800312707 113.10526315803145 L 462.47070757796195 85.73684210518093 L 465.5674973183893 58.36842105285035 L 468.93347538758275 30.999999999999886" stroke-linejoin="bevel" stroke-miterlimit="10" stroke-width="2"/></g></g></g><g clip-path="url(#qVZqkpzzCDHM)"><g><g/><g><path fill="#ffffff" stroke="#e5e5e5" paint-order="fill stroke markers" d=" M 659.4375 15 L 760 15 L 760 55 L 659.4375 55 L 659.4375 15 Z" fill-opacity="0.95" stroke-linejoin="bevel" stroke-miterlimit="10" stroke-opacity="0.5"/><text fill="#444444" stroke="none" font-family="helvetica" font-size="10pt" font-style="normal" font-weight="normal" text-decoration="normal" x="694.4375" y="35" text-anchor="start" dominant-baseline="central">Temp-450</text><path fill="#29788E" stroke="#29788E" paint-order="fill stroke markers" d=" M 683.4375 35 A 4 4 0 1 1 683.4374980000001 34.99600000066666" stroke-linejoin="bevel" stroke-miterlimit="10"/><g><path fill="none" stroke="#29788E" paint-order="fill stroke markers" d=" M 669.4375 35 L 689.4375 35" stroke-linejoin="bevel" stroke-miterlimit="10" stroke-width="2"/></g></g></g></g><g/><g/><g><g fill="#444444"><path fill="none" stroke="black" paint-order="fill stroke markers" d=" M 61 577 L 770 577" stroke-linejoin="bevel" stroke-miterlimit="10"/><path fill="none" stroke="black" paint-order="fill stroke markers" d=" M 164 583 L 164 575" stroke-linejoin="bevel" stroke-miterlimit="10"/><path fill="none" stroke="black" paint-order="fill stroke markers" d=" M 295 583 L 295 575" stroke-linejoin="bevel" stroke-miterlimit="10"/><path fill="none" stroke="black" paint-order="fill stroke markers" d=" M 427 583 L 427 575" stroke-linejoin="bevel" stroke-miterlimit="10"/><path fill="none" stroke="black" paint-order="fill stroke markers" d=" M 558 583 L 558 575" stroke-linejoin="bevel" stroke-miterlimit="10"/><path fill="none" stroke="black" paint-order="fill stroke markers" d=" M 689 583 L 689 575" stroke-linejoin="bevel" stroke-miterlimit="10"/><path fill="none" stroke="black" paint-order="fill stroke markers" d=" M 138 581 L 138 577" stroke-linejoin="bevel" stroke-miterlimit="10"/><path fill="none" stroke="black" paint-order="fill stroke markers" d=" M 112 581 L 112 577" stroke-linejoin="bevel" stroke-miterlimit="10"/><path fill="none" stroke="black" paint-order="fill stroke markers" d=" M 86 581 L 86 577" stroke-linejoin="bevel" stroke-miterlimit="10"/><path fill="none" stroke="black" paint-order="fill stroke markers" d=" M 164 581 L 164 577" stroke-linejoin="bevel" stroke-miterlimit="10"/><path fill="none" stroke="black" paint-order="fill stroke markers" d=" M 190 581 L 190 577" stroke-linejoin="bevel" stroke-miterlimit="10"/><path fill="none" stroke="black" paint-order="fill stroke markers" d=" M 217 581 L 217 577" stroke-linejoin="bevel" stroke-miterlimit="10"/><path fill="none" stroke="black" paint-order="fill stroke markers" d=" M 243 581 L 243 577" stroke-linejoin="bevel" stroke-miterlimit="10"/><path fill="none" stroke="black" paint-order="fill stroke markers" d=" M 269 581 L 269 577" stroke-linejoin="bevel" stroke-miterlimit="10"/><path fill="none" stroke="black" paint-order="fill stroke markers" d=" M 295 581 L 295 577" stroke-linejoin="bevel" stroke-miterlimit="10"/><path fill="none" stroke="black" paint-order="fill stroke markers" d=" M 322 581 L 322 577" stroke-linejoin="bevel" stroke-miterlimit="10"/><path fill="none" stroke="black" paint-order="fill stroke markers" d=" M 348 581 L 348 577" stroke-linejoin="bevel" stroke-miterlimit="10"/><path fill="none" stroke="black" paint-order="fill stroke markers" d=" M 374 581 L 374 577" stroke-linejoin="bevel" stroke-miterlimit="10"/><path fill="none" stroke="black" paint-order="fill stroke markers" d=" M 400 581 L 400 577" stroke-linejoin="bevel" stroke-miterlimit="10"/><path fill="none" stroke="black" paint-order="fill stroke markers" d=" M 427 581 L 427 577" stroke-linejoin="bevel" stroke-miterlimit="10"/><path fill="none" stroke="black" paint-order="fill stroke markers" d=" M 453 581 L 453 577" stroke-linejoin="bevel" stroke-miterlimit="10"/><path fill="none" stroke="black" paint-order="fill stroke markers" d=" M 479 581 L 479 577" stroke-linejoin="bevel" stroke-miterlimit="10"/><path fill="none" stroke="black" paint-order="fill stroke markers" d=" M 505 581 L 505 577" stroke-linejoin="bevel" stroke-miterlimit="10"/><path fill="none" stroke="black" paint-order="fill stroke markers" d=" M 531 581 L 531 577" stroke-linejoin="bevel" stroke-miterlimit="10"/><path fill="none" stroke="black" paint-order="fill stroke markers" d=" M 558 581 L 558 577" stroke-linejoin="bevel" stroke-miterlimit="10"/><path fill="none" stroke="black" paint-order="fill stroke markers" d=" M 584 581 L 584 577" stroke-linejoin="bevel" stroke-miterlimit="10"/><path fill="none" stroke="black" paint-order="fill stroke markers" d=" M 610 581 L 610 577" stroke-linejoin="bevel" stroke-miterlimit="10"/><path fill="none" stroke="black" paint-order="fill stroke markers" d=" M 636 581 L 636 577" stroke-linejoin="bevel" stroke-miterlimit="10"/><path fill="none" stroke="black" paint-order="fill stroke markers" d=" M 663 581 L 663 577" stroke-linejoin="bevel" stroke-miterlimit="10"/><path fill="none" stroke="black" paint-order="fill stroke markers" d=" M 689 581 L 689 577" stroke-linejoin="bevel" stroke-miterlimit="10"/><path fill="none" stroke="black" paint-order="fill stroke markers" d=" M 715 581 L 715 577" stroke-linejoin="bevel" stroke-miterlimit="10"/><path fill="none" stroke="black" paint-order="fill stroke markers" d=" M 741 581 L 741 577" stroke-linejoin="bevel" stroke-miterlimit="10"/><path fill="" stroke="black" paint-order="fill stroke markers" d=" M 767 581 L 767 577" stroke-linejoin="bevel" stroke-miterlimit="10"/><g transform="translate(164,588) rotate(0,0,0)"><text fill="" stroke="none" font-family="helvetica" font-size="8pt" font-style="normal" font-weight="normal" text-decoration="normal" x="0" y="0" text-anchor="middle" dominant-baseline="hanging">1</text><g transform="rotate(0,0,0) translate(-164,-588) translate(295,588) rotate(0,0,0)"><text fill="" stroke="none" font-family="helvetica" font-size="8pt" font-style="normal" font-weight="normal" text-decoration="normal" x="0" y="0" text-anchor="middle" dominant-baseline="hanging">2</text><g transform="rotate(0,0,0) translate(-295,-588) translate(427,588) rotate(0,0,0)"><text fill="" stroke="none" font-family="helvetica" font-size="8pt" font-style="normal" font-weight="normal" text-decoration="normal" x="0" y="0" text-anchor="middle" dominant-baseline="hanging">3</text><g transform="rotate(0,0,0) translate(-427,-588) translate(558,588) rotate(0,0,0)"><text fill="" stroke="none" font-family="helvetica" font-size="8pt" font-style="normal" font-weight="normal" text-decoration="normal" x="0" y="0" text-anchor="middle" dominant-baseline="hanging">4</text><g transform="rotate(0,0,0) translate(-558,-588) translate(689,588) rotate(0,0,0)"><text fill="" stroke="none" font-family="helvetica" font-size="8pt" font-style="normal" font-weight="normal" text-decoration="normal" x="0" y="0" text-anchor="middle" dominant-baseline="hanging">5</text><g transform="rotate(0,0,0) translate(-689,-588)"/></g></g></g></g></g></g></g><g><g fill="#444444"><path fill="none" stroke="black" paint-order="fill stroke markers" d=" M 61 577 L 61 5" stroke-linejoin="bevel" stroke-miterlimit="10"/><path fill="none" stroke="black" paint-order="fill stroke markers" d=" M 55 551 L 63 551" stroke-linejoin="bevel" stroke-miterlimit="10"/><path fill="none" stroke="black" paint-order="fill stroke markers" d=" M 55 447 L 63 447" stroke-linejoin="bevel" stroke-miterlimit="10"/><path fill="none" stroke="black" paint-order="fill stroke markers" d=" M 55 343 L 63 343" stroke-linejoin="bevel" stroke-miterlimit="10"/><path fill="none" stroke="black" paint-order="fill stroke markers" d=" M 55 239 L 63 239" stroke-linejoin="bevel" stroke-miterlimit="10"/><path fill="none" stroke="black" paint-order="fill stroke markers" d=" M 55 135 L 63 135" stroke-linejoin="bevel" stroke-miterlimit="10"/><path fill="none" stroke="black" paint-order="fill stroke markers" d=" M 55 31 L 63 31" stroke-linejoin="bevel" stroke-miterlimit="10"/><path fill="none" stroke="black" paint-order="fill stroke markers" d=" M 57 572 L 61 572" stroke-linejoin="bevel" stroke-miterlimit="10"/><path fill="none" stroke="black" paint-order="fill stroke markers" d=" M 57 551 L 61 551" stroke-linejoin="bevel" stroke-miterlimit="10"/><path fill="none" stroke="black" paint-order="fill stroke markers" d=" M 57 530 L 61 530" stroke-linejoin="bevel" stroke-miterlimit="10"/><path fill="none" stroke="black" paint-order="fill stroke markers" d=" M 57 509 L 61 509" stroke-linejoin="bevel" stroke-miterlimit="10"/><path fill="none" stroke="black" paint-order="fill stroke markers" d=" M 57 489 L 61 489" stroke-linejoin="bevel" stroke-miterlimit="10"/><path fill="none" stroke="black" paint-order="fill stroke markers" d=" M 57 468 L 61 468" stroke-linejoin="bevel" stroke-miterlimit="10"/><path fill="none" stroke="black" paint-order="fill stroke markers" d=" M 57 447 L 61 447" stroke-linejoin="bevel" stroke-miterlimit="10"/><path fill="none" stroke="black" paint-order="fill stroke markers" d=" M 57 426 L 61 426" stroke-linejoin="bevel" stroke-miterlimit="10"/><path fill="none" stroke="black" paint-order="fill stroke markers" d=" M 57 405 L 61 405" stroke-linejoin="bevel" stroke-miterlimit="10"/><path fill="none" stroke="black" paint-order="fill stroke markers" d=" M 57 385 L 61 385" stroke-linejoin="bevel" stroke-miterlimit="10"/><path fill="none" stroke="black" paint-order="fill stroke markers" d=" M 57 364 L 61 364" stroke-linejoin="bevel" stroke-miterlimit="10"/><path fill="none" stroke="black" paint-order="fill stroke markers" d=" M 57 343 L 61 343" stroke-linejoin="bevel" stroke-miterlimit="10"/><path fill="none" stroke="black" paint-order="fill stroke markers" d=" M 57 322 L 61 322" stroke-linejoin="bevel" stroke-miterlimit="10"/><path fill="none" stroke="black" paint-order="fill stroke markers" d=" M 57 301 L 61 301" stroke-linejoin="bevel" stroke-miterlimit="10"/><path fill="none" stroke="black" paint-order="fill stroke markers" d=" M 57 281 L 61 281" stroke-linejoin="bevel" stroke-miterlimit="10"/><path fill="none" stroke="black" paint-order="fill stroke markers" d=" M 57 260 L 61 260" stroke-linejoin="bevel" stroke-miterlimit="10"/><path fill="none" stroke="black" paint-order="fill stroke markers" d=" M 57 239 L 61 239" stroke-linejoin="bevel" stroke-miterlimit="10"/><path fill="none" stroke="black" paint-order="fill stroke markers" d=" M 57 218 L 61 218" stroke-linejoin="bevel" stroke-miterlimit="10"/><path fill="none" stroke="black" paint-order="fill stroke markers" d=" M 57 197 L 61 197" stroke-linejoin="bevel" stroke-miterlimit="10"/><path fill="none" stroke="black" paint-order="fill stroke markers" d=" M 57 177 L 61 177" stroke-linejoin="bevel" stroke-miterlimit="10"/><path fill="none" stroke="black" paint-order="fill stroke markers" d=" M 57 156 L 61 156" stroke-linejoin="bevel" stroke-miterlimit="10"/><path fill="none" stroke="black" paint-order="fill stroke markers" d=" M 57 135 L 61 135" stroke-linejoin="bevel" stroke-miterlimit="10"/><path fill="none" stroke="black" paint-order="fill stroke markers" d=" M 57 114 L 61 114" stroke-linejoin="bevel" stroke-miterlimit="10"/><path fill="none" stroke="black" paint-order="fill stroke markers" d=" M 57 93 L 61 93" stroke-linejoin="bevel" stroke-miterlimit="10"/><path fill="none" stroke="black" paint-order="fill stroke markers" d=" M 57 73 L 61 73" stroke-linejoin="bevel" stroke-miterlimit="10"/><path fill="none" stroke="black" paint-order="fill stroke markers" d=" M 57 52 L 61 52" stroke-linejoin="bevel" stroke-miterlimit="10"/><path fill="none" stroke="black" paint-order="fill stroke markers" d=" M 57 31 L 61 31" stroke-linejoin="bevel" stroke-miterlimit="10"/><path fill="" stroke="black" paint-order="fill stroke markers" d=" M 57 10 L 61 10" stroke-linejoin="bevel" stroke-miterlimit="10"/><g transform="translate(50,551) rotate(0,0,0)"><text fill="" stroke="none" font-family="helvetica" font-size="8pt" font-style="normal" font-weight="normal" text-decoration="normal" x="0" y="0" text-anchor="end" dominant-baseline="central">0.000e+0</text><g transform="rotate(0,0,0) translate(-50,-551) translate(50,447) rotate(0,0,0)"><text fill="" stroke="none" font-family="helvetica" font-size="8pt" font-style="normal" font-weight="normal" text-decoration="normal" x="0" y="0" text-anchor="end" dominant-baseline="central">2.000e-4</text><g transform="rotate(0,0,0) translate(-50,-447) translate(50,343) rotate(0,0,0)"><text fill="" stroke="none" font-family="helvetica" font-size="8pt" font-style="normal" font-weight="normal" text-decoration="normal" x="0" y="0" text-anchor="end" dominant-baseline="central">4.000e-4</text><g transform="rotate(0,0,0) translate(-50,-343) translate(50,239) rotate(0,0,0)"><text fill="" stroke="none" font-family="helvetica" font-size="8pt" font-style="normal" font-weight="normal" text-decoration="normal" x="0" y="0" text-anchor="end" dominant-baseline="central">6.000e-4</text><g transform="rotate(0,0,0) translate(-50,-239) translate(50,135) rotate(0,0,0)"><text fill="" stroke="none" font-family="helvetica" font-size="8pt" font-style="normal" font-weight="normal" text-decoration="normal" x="0" y="0" text-anchor="end" dominant-baseline="central">8.000e-4</text><g transform="rotate(0,0,0) translate(-50,-135) translate(50,31) rotate(0,0,0)"><text fill="" stroke="none" font-family="helvetica" font-size="8pt" font-style="normal" font-weight="normal" text-decoration="normal" x="0" y="0" text-anchor="end" dominant-baseline="central">1.000e-3</text><g transform="rotate(0,0,0) translate(-50,-31)"/></g></g></g></g></g></g></g></g><g clip-path="url(#XusCNGaJHJUx)"><g/></g></g></g></svg>