<svg version="1.1" xmlns="http://www.w3.org/2000/svg" xmlns:xlink="http://www.w3.org/1999/xlink" width="800" height="600" style="width: 800px; height: 600px;"><defs><clipPath id="KuzSsLgclHvP"><path fill="none" stroke="none" d=" M 61 5 L 770 5 L 770 577 L 61 577 L 61 5 Z"/></clipPath><clipPath id="xMTICIbnFNml"><path fill="none" stroke="none" d=" M 61 5 L 770 5 L 770 577 L 61 577 L 61 5 Z"/></clipPath><clipPath id="NiLBRdVOCEEO"><path fill="none" stroke="none" d=" M 61 5 L 770 5 L 770 577 L 61 577 L 61 5 Z"/></clipPath><clipPath id="lwDRzlQaiHsI"><path fill="none" stroke="none" d=" M 61 5 L 770 5 L 770 577 L 61 577 L 61 5 Z"/></clipPath><clipPath id="ZwlLVXtbzBxO"><path fill="none" stroke="none" d=" M 61 5 L 770 5 L 770 577 L 61 577 L 61 5 Z"/></clipPath><clipPath id="MMhkaxbwlvKf"><path fill="none" stroke="none" d=" M 61 5 L 770 5 L 770 577 L 61 577 L 61 5 Z"/></clipPath></defs><g><g transform="scale(1,1) translate(0.5,0.5)"><rect fill="#FFFFFF" stroke="none" x="0" y="0" width="800" height="600"/><rect fill="#ffffff" stroke="none" x="0" y="0" width="800" height="600"/><rect fill="#FFFFFF" stroke="none" x="61" y="5" width="709" height="572"/><rect fill="#ffffff" stroke="none" x="61" y="5" width="709" height="572"/><g><rect fill="none" stroke="#e5e5e5" x="61" y="5" width="709" height="572" stroke-linejoin="bevel" stroke-miterlimit="10"/></g><g clip-path="url(#KuzSsLgclHvP)"><g><g><path fill="none" stroke="#e5e5e5" paint-order="fill stroke markers" d=" M 185 577 L 185 5" stroke-linejoin="bevel" stroke-miterlimit="10"/><path fill="none" stroke="#e5e5e5" paint-order="fill stroke markers" d=" M 323 577 L 323 5" stroke-linejoin="bevel" stroke-miterlimit="10"/><path fill="none" stroke="#e5e5e5" paint-order="fill stroke markers" d=" M 462 577 L 462 5" stroke-linejoin="bevel" stroke-miterlimit="10"/><path fill="none" stroke="#e5e5e5" paint-order="fill stroke markers" d=" M 600 577 L 600 5" stroke-linejoin="bevel" stroke-miterlimit="10"/><path fill="none" stroke="#e5e5e5" paint-order="fill stroke markers" d=" M 739 577 L 739 5" stroke-linejoin="bevel" stroke-miterlimit="10"/></g></g></g><g clip-path="url(#xMTICIbnFNml)"><g><g><path fill="none" stroke="#e5e5e5" paint-order="fill stroke markers" d=" M 61 551 L 770 551" stroke-linejoin="bevel" stroke-miterlimit="10"/><path fill="none" stroke="#e5e5e5" paint-order="fill stroke markers" d=" M 61 447 L 770 447" stroke-linejoin="bevel" stroke-miterlimit="10"/><path fill="none" stroke="#e5e5e5" paint-order="fill stroke markers" d=" M 61 343 L 770 343" stroke-linejoin="bevel" stroke-miterlimit="10"/><path fill="none" stroke="#e5e5e5" paint-order="fill stroke markers" d=" M 61 239 L 770 239" stroke-linejoin="bevel" stroke-miterlimit="10"/><path fill="none" stroke="#e5e5e5" paint-order="fill stroke markers" d=" M 61 135 L 770 135" stroke-linejoin="bevel" stroke-miterlimit="10"/><path fill="none" stroke="#e5e5e5" paint-order="fill stroke markers" d=" M 61 31 L 770 31" stroke-linejoin="bevel" stroke-miterlimit="10"/></g></g></g><g clip-path="url(#NiLBRdVOCEEO)"><g><g><path fill="none" stroke="none"/><path fill="#404387" stroke="#404387" paint-order="fill stroke markers" d=" M 96.2272727272727 550.9999999999999 A 3 3 0 1 1 96.22727122727284 550.9970000004998" stroke-linejoin="bevel" stroke-miterlimit="10"/><path fill="#404387" stroke="#404387" paint-order="fill stroke markers" d=" M 740.7727272727273 523.6315789473574 A 3 3 0 1 1 740.7727257727274 523.6285789478574" stroke-linejoin="bevel" stroke-miterlimit="10"/><path fill="#404387" stroke="#404387" paint-order="fill stroke markers" d=" M 617.18066341275 496.26315789481885 A 3 3 0 1 1 617.1806619127502 496.26015789531886" stroke-linejoin="bevel" stroke-miterlimit="10"/><path fill="#404387" stroke="#404387" paint-order="fill stroke markers" d=" M 561.632289019075 468.8947368419683 A 3 3 0 1 1 561.6322875190751 468.89173684246833" stroke-linejoin="bevel" stroke-miterlimit="10"/><path fill="#404387" stroke="#404387" paint-order="fill stroke markers" d=" M 530.0294146665356 441.5263157896378 A 3 3 0 1 1 530.0294131665357 441.5233157901378" stroke-linejoin="bevel" stroke-miterlimit="10"/><path fill="#404387" stroke="#404387" paint-order="fill stroke markers" d=" M 509.60492909020553 414.1578947367873 A 3 3 0 1 1 509.60492759020565 414.1548947372873" stroke-linejoin="bevel" stroke-miterlimit="10"/><path fill="#404387" stroke="#404387" paint-order="fill stroke markers" d=" M 495.4071752070369 386.7894736844567 A 3 3 0 1 1 495.40717370703703 386.7864736849567" stroke-linejoin="bevel" stroke-miterlimit="10"/><path fill="#404387" stroke="#404387" paint-order="fill stroke markers" d=" M 485.5546082720891 359.42105263160624 A 3 3 0 1 1 485.55460677208924 359.41805263210625" stroke-linejoin="bevel" stroke-miterlimit="10"/><path fill="#404387" stroke="#404387" paint-order="fill stroke markers" d=" M 479.14518045743444 332.05263157875567 A 3 3 0 1 1 479.14517895743455 332.0496315792557" stroke-linejoin="bevel" stroke-miterlimit="10"/><path fill="#404387" stroke="#404387" paint-order="fill stroke markers" d=" M 475.4308134854136 304.68421052642515 A 3 3 0 1 1 475.4308119854137 304.68121052692516" stroke-linejoin="bevel" stroke-miterlimit="10"/><path fill="#404387" stroke="#404387" paint-order="fill stroke markers" d=" M 473.78523917887065 277.3157894735747 A 3 3 0 1 1 473.78523767887077 277.3127894740747" stroke-linejoin="bevel" stroke-miterlimit="10"/><path fill="#404387" stroke="#404387" paint-order="fill stroke markers" d=" M 473.6099949156783 249.9473684212441 A 3 3 0 1 1 473.60999341567845 249.94436842174412" stroke-linejoin="bevel" stroke-miterlimit="10"/><path fill="#404387" stroke="#404387" paint-order="fill stroke markers" d=" M 474.57705430821255 222.57894736839359 A 3 3 0 1 1 474.57705280821267 222.5759473688936" stroke-linejoin="bevel" stroke-miterlimit="10"/><path fill="#404387" stroke="#404387" paint-order="fill stroke markers" d=" M 476.3304864616667 195.21052631554306 A 3 3 0 1 1 476.3304849616668 195.20752631604307" stroke-linejoin="bevel" stroke-miterlimit="10"/><path fill="#404387" stroke="#404387" paint-order="fill stroke markers" d=" M 478.60490170134744 167.8421052632125 A 3 3 0 1 1 478.60490020134756 167.8391052637125" stroke-linejoin="bevel" stroke-miterlimit="10"/><path fill="#404387" stroke="#404387" paint-order="fill stroke markers" d=" M 481.2729486061772 140.47368421036197 A 3 3 0 1 1 481.2729471061773 140.47068421086198" stroke-linejoin="bevel" stroke-miterlimit="10"/><path fill="#404387" stroke="#404387" paint-order="fill stroke markers" d=" M 484.1075319847238 113.10526315803145 A 3 3 0 1 1 484.1075304847239 113.10226315853144" stroke-linejoin="bevel" stroke-miterlimit="10"/><path fill="#404387" stroke="#404387" paint-order="fill stroke markers" d=" M 487.3455432915793 85.73684210518093 A 3 3 0 1 1 487.3455417915794 85.73384210568092" stroke-linejoin="bevel" stroke-miterlimit="10"/><path fill="#404387" stroke="#404387" paint-order="fill stroke markers" d=" M 490.5965173304947 58.36842105285035 A 3 3 0 1 1 490.5965158304948 58.36542105335035" stroke-linejoin="bevel" stroke-miterlimit="10"/><path fill="#404387" stroke="#404387" paint-order="fill stroke markers" d=" M 493.9204191062666 30.999999999999886 A 3 3 0 1 1 493.9204176062667 30.997000000499884" stroke-linejoin="bevel" stroke-miterlimit="10"/></g></g></g><g clip-path="url(#lwDRzlQaiHsI)"><g><g><path fill="none" stroke="none"/><path fill="none" stroke="#404387" paint-order="fill stroke markers" d=" M 93.2272727272727 550.9999999999999 L 737.7727272727273 523.6315789473574 L 614.18066341275 496.26315789481885 L 558.632289019075 468.8947368419683 L 527.0294146665356 441.5263157896378 L 506.60492909020553 414.1578947367873 L 492.4071752070369 386.7894736844567 L 482.5546082720891 359.42105263160624 L 476.14518045743444 332.05263157875567 L 472.4308134854136 304.68421052642515 L 470.78523917887065 277.3157894735747 L 470.6099949156783 249.9473684212441 L 471.57705430821255 222.57894736839359 L 473.3304864616667 195.21052631554306 L 475.60490170134744 167.8421052632125 L 478.2729486061772 140.47368421036197 L 481.1075319847238 113.10526315803145 L 484.3455432915793 85.73684210518093 L 487.5965173304947 58.36842105285035 L 490.9204191062666 30.999999999999886" stroke-linejoin="bevel" stroke-miterlimit="10" stroke-width="2"/></g></g></g><g clip-path="url(#ZwlLVXtbzBxO)"><g><g/><g><path fill="#ffffff" stroke="#e5e5e5" paint-order="fill stroke markers" d=" M 659.4375 15 L 760 15 L 760 55 L 659.4375 55 L 659.4375 15 Z" fill-opacity="0.95" stroke-linejoin="bevel" stroke-miterlimit="10" stroke-opacity="0.5"/><text fill="#444444" stroke="none" font-family="helvetica" font-size="10pt" font-style="normal" font-weight="normal" text-decoration="normal" x="694.4375" y="35" text-anchor="start" dominant-baseline="central">Temp-500</text><path fill="#404387" stroke="#404387" paint-order="fill stroke markers" d=" M 683.4375 35 A 4 4 0 1 1 683.4374980000001 34.99600000066666" stroke-linejoin="bevel" stroke-miterlimit="10"/><g><path fill="none" stroke="#404387" paint-order="fill stroke markers" d=" M 669.4375 35 L 689.4375 35" stroke-linejoin="bevel" stroke-miterlimit="10" stroke-width="2"/></g></g></g></g><g/><g/><g><g fill="#444444"><path fill="none" stroke="black" paint-order="fill stroke markers" d=" M 61 577 L 770 577" stroke-linejoin="bevel" stroke-miterlimit="10"/><path fill="none" stroke="black" paint-order="fill stroke markers" d=" M 185 583 L 185 575" stroke-linejoin="bevel" stroke-miterlimit="10"/><path fill="none" stroke="black" paint-order="fill stroke markers" d=" M 323 583 L 323 575" stroke-linejoin="bevel" stroke-miterlimit="10"/><path fill="none" stroke="black" paint-order="fill stroke markers" d=" M 462 583 L 462 575" stroke-linejoin="bevel" stroke-miterlimit="10"/><path fill="none" stroke="black" paint-order="fill stroke markers" d=" M 600 583 L 600 575" stroke-linejoin="bevel" stroke-miterlimit="10"/><path fill="none" stroke="black" paint-order="fill stroke markers" d=" M 739 583 L 739 575" stroke-linejoin="bevel" stroke-miterlimit="10"/><path fill="none" stroke="black" paint-order="fill stroke markers" d=" M 157 581 L 157 577" stroke-linejoin="bevel" stroke-miterlimit="10"/><path fill="none" stroke="black" paint-order="fill stroke markers" d=" M 129 581 L 129 577" stroke-linejoin="bevel" stroke-miterlimit="10"/><path fill="none" stroke="black" paint-order="fill stroke markers" d=" M 101 581 L 101 577" stroke-linejoin="bevel" stroke-miterlimit="10"/><path fill="none" stroke="black" paint-order="fill stroke markers" d=" M 74 581 L 74 577" stroke-linejoin="bevel" stroke-miterlimit="10"/><path fill="none" stroke="black" paint-order="fill stroke markers" d=" M 185 581 L 185 577" stroke-linejoin="bevel" stroke-miterlimit="10"/><path fill="none" stroke="black" paint-order="fill stroke markers" d=" M 212 581 L 212 577" stroke-linejoin="bevel" stroke-miterlimit="10"/><path fill="none" stroke="black" paint-order="fill stroke markers" d=" M 240 581 L 240 577" stroke-linejoin="bevel" stroke-miterlimit="10"/><path fill="none" stroke="black" paint-order="fill stroke markers" d=" M 268 581 L 268 577" stroke-linejoin="bevel" stroke-miterlimit="10"/><path fill="none" stroke="black" paint-order="fill stroke markers" d=" M 295 581 L 295 577" stroke-linejoin="bevel" stroke-miterlimit="10"/><path fill="none" stroke="black" paint-order="fill stroke markers" d=" M 323 581 L 323 577" stroke-linejoin="bevel" stroke-miterlimit="10"/><path fill="none" stroke="black" paint-order="fill stroke markers" d=" M 351 581 L 351 577" stroke-linejoin="bevel" stroke-miterlimit="10"/><path fill="none" stroke="black" paint-order="fill stroke markers" d=" M 378 581 L 378 577" stroke-linejoin="bevel" stroke-miterlimit="10"/><path fill="none" stroke="black" paint-order="fill stroke markers" d=" M 406 581 L 406 577" stroke-linejoin="bevel" stroke-miterlimit="10"/><path fill="none" stroke="black" paint-order="fill stroke markers" d=" M 434 581 L 434 577" stroke-linejoin="bevel" stroke-miterlimit="10"/><path fill="none" stroke="black" paint-order="fill stroke markers" d=" M 462 581 L 462 577" stroke-linejoin="bevel" stroke-miterlimit="10"/><path fill="none" stroke="black" paint-order="fill stroke markers" d=" M 489 581 L 489 577" stroke-linejoin="bevel" stroke-miterlimit="10"/><path fill="none" stroke="black" paint-order="fill stroke markers" d=" M 517 581 L 517 577" stroke-linejoin="bevel" stroke-miterlimit="10"/><path fill="none" stroke="black" paint-order="fill stroke markers" d=" M 545 581 L 545 577" stroke-linejoin="bevel" stroke-miterlimit="10"/><path fill="none" stroke="black" paint-order="fill stroke markers" d=" M 572 581 L 572 577" stroke-linejoin="bevel" stroke-miterlimit="10"/><path fill="none" stroke="black" paint-order="fill stroke markers" d=" M 600 581 L 600 577" stroke-linejoin="bevel" stroke-miterlimit="10"/><path fill="none" stroke="black" paint-order="fill stroke markers" d=" M 628 581 L 628 577" stroke-linejoin="bevel" stroke-miterlimit="10"/><path fill="none" stroke="black" paint-order="fill stroke markers" d=" M 656 581 L 656 577" stroke-linejoin="bevel" stroke-miterlimit="10"/><path fill="none" stroke="black" paint-order="fill stroke markers" d=" M 683 581 L 683 577" stroke-linejoin="bevel" stroke-miterlimit="10"/><path fill="none" stroke="black" paint-order="fill stroke markers" d=" M 711 581 L 711 577" stroke-linejoin="bevel" stroke-miterlimit="10"/><path fill="none" stroke="black" paint-order="fill stroke markers" d=" M 739 581 L 739 577" stroke-linejoin="bevel" stroke-miterlimit="10"/><path fill="" stroke="black" paint-order="fill stroke markers" d=" M 766 581 L 766 577" stroke-linejoin="bevel" stroke-miterlimit="10"/><g transform="translate(185,588) rotate(0,0,0)"><text fill="" stroke="none" font-family="helvetica" font-size="8pt" font-style="normal" font-weight="normal" text-decoration="normal" x="0" y="0" text-anchor="middle" dominant-baseline="hanging">1</text><g transform="rotate(0,0,0) translate(-185,-588) translate(323,588) rotate(0,0,0)"><text fill="" stroke="none" font-family="helvetica" font-size="8pt" font-style="normal" font-weight="normal" text-decoration="normal" x="0" y="0" text-anchor="middle" dominant-baseline="hanging">2</text><g transform="rotate(0,0,0) translate(-323,-588) translate(462,588) rotate(0,0,0)"><text fill="" stroke="none" font-family="helvetica" font-size="8pt" font-style="normal" font-weight="normal" text-decoration="normal" x="0" y="0" text-anchor="middle" dominant-baseline="hanging">3</text><g transform="rotate(0,0,0) translate(-462,-588) translate(600,588) rotate(0,0,0)"><text fill="" stroke="none" font-family="helvetica" font-size="8pt" font-style="normal" font-weight="normal" text-decoration="normal" x="0" y="0" text-anchor="middle" dominant-baseline="hanging">4</text><g transform="rotate(0,0,0) translate(-600,-588) translate(739,588) rotate(0,0,0)"><text fill="" stroke="none" font-family="helvetica" font-size="8pt" font-style="normal" font-weight="normal" text-decoration="normal" x="0" y="0" text-anchor="middle" dominant-baseline="hanging">5</text><g transform="rotate(0,0,0) translate(-739,-588)"/></g></g></g></g></g></g></g><g><g fill="#444444"><path fill="none" stroke="black" paint-order="fill stroke markers" d=" M 61 577 L 61 5" stroke-linejoin="bevel" stroke-miterlimit="10"/><path fill="none" stroke="black" paint-order="fill stroke markers" d=" M 55 551 L 63 551" stroke-linejoin="bevel" stroke-miterlimit="10"/><path fill="none" stroke="black" paint-order="fill stroke markers" d=" M 55 447 L 63 447" stroke-linejoin="bevel" stroke-miterlimit="10"/><path fill="none" stroke="black" paint-order="fill stroke markers" d=" M 55 343 L 63 343" stroke-linejoin="bevel" stroke-miterlimit="10"/><path fill="none" stroke="black" paint-order="fill stroke markers" d=" M 55 239 L 63 239" stroke-linejoin="bevel" stroke-miterlimit="10"/><path fill="none" stroke="black" paint-order="fill stroke markers" d=" M 55 135 L 63 135" stroke-linejoin="bevel" stroke-miterlimit="10"/><path fill="none" stroke="black" paint-order="fill stroke markers" d=" M 55 31 L 63 31" stroke-linejoin="bevel" stroke-miterlimit="10"/><path fill="none" stroke="black" paint-order="fill stroke markers" d=" M 57 572 L 61 572" stroke-linejoin="bevel" stroke-miterlimit="10"/><path fill="none" stroke="black" paint-order="fill stroke markers" d=" M 57 551 L 61 551" stroke-linejoin="bevel" stroke-miterlimit="10"/><path fill="none" stroke="black" paint-order="fill stroke markers" d=" M 57 530 L 61 530" stroke-linejoin="bevel" stroke-miterlimit="10"/><path fill="none" stroke="black" paint-order="fill stroke markers" d=" M 57 509 L 61 509" stroke-linejoin="bevel" stroke-miterlimit="10"/><path fill="none" stroke="black" paint-order="fill stroke markers" d=" M 57 489 L 61 489" stroke-linejoin="bevel" stroke-miterlimit="10"/><path fill="none" stroke="black" paint-order="fill stroke markers" d=" M 57 468 L 61 468" stroke-linejoin="bevel" stroke-miterlimit="10"/><path fill="none" stroke="black" paint-order="fill stroke markers" d=" M 57 447 L 61 447" stroke-linejoin="bevel" stroke-miterlimit="10"/><path fill="none" stroke="black" paint-order="fill stroke markers" d=" M 57 426 L 61 426" stroke-linejoin="bevel" stroke-miterlimit="10"/><path fill="none" stroke="black" paint-order="fill stroke markers" d=" M 57 405 L 61 405" stroke-linejoin="bevel" stroke-miterlimit="10"/><path fill="none" stroke="black" paint-order="fill stroke markers" d=" M 57 385 L 61 385" stroke-linejoin="bevel" stroke-miterlimit="10"/><path fill="none" stroke="black" paint-order="fill stroke markers" d=" M 57 364 L 61 364" stroke-linejoin="bevel" stroke-miterlimit="10"/><path fill="none" stroke="black" paint-order="fill stroke markers" d=" M 57 343 L 61 343" stroke-linejoin="bevel" stroke-miterlimit="10"/><path fill="none" stroke="black" paint-order="fill stroke markers" d=" M 57 322 L 61 322" stroke-linejoin="bevel" stroke-miterlimit="10"/><path fill="none" stroke="black" paint-order="fill stroke markers" d=" M 57 301 L 61 301" stroke-linejoin="bevel" stroke-miterlimit="10"/><path fill="none" stroke="black" paint-order="fill stroke markers" d=" M 57 281 L 61 281" stroke-linejoin="bevel" stroke-miterlimit="10"/><path fill="none" stroke="black" paint-order="fill stroke markers" d=" M 57 260 L 61 260" stroke-linejoin="bevel" stroke-miterlimit="10"/><path fill="none" stroke="black" paint-order="fill stroke markers" d=" M 57 239 L 61 239" stroke-linejoin="bevel" stroke-miterlimit="10"/><path fill="none" stroke="black" paint-order="fill stroke markers" d=" M 57 218 L 61 218" stroke-linejoin="bevel" stroke-miterlimit="10"/><path fill="none" stroke="black" paint-order="fill stroke markers" d=" M 57 197 L 61 197" stroke-linejoin="bevel" stroke-miterlimit="10"/><path fill="none" stroke="black" paint-order="fill stroke markers" d=" M 57 177 L 61 177" stroke-linejoin="bevel" stroke-miterlimit="10"/><path fill="none" stroke="black" paint-order="fill stroke markers" d=" M 57 156 L 61 156" stroke-linejoin="bevel" stroke-miterlimit="10"/><path fill="none" stroke="black" paint-order="fill stroke markers" d=" M 57 135 L 61 135" stroke-linejoin="bevel" stroke-miterlimit="10"/><path fill="none" stroke="black" paint-order="fill stroke markers" d=" M 57 114 L 61 114" stroke-linejoin="bevel" stroke-miterlimit="10"/><path fill="none" stroke="black" paint-order="fill stroke markers" d=" M 57 93 L 61 93" stroke-linejoin="bevel" stroke-miterlimit="10"/><path fill="none" stroke="black" paint-order="fill stroke markers" d=" M 57 73 L 61 73" stroke-linejoin="bevel" stroke-miterlimit="10"/><path fill="none" stroke="black" paint-order="fill stroke markers" d=" M 57 52 L 61 52" stroke-linejoin="bevel" stroke-miterlimit="10"/><path fill="none" stroke="black" paint-order="fill stroke markers" d=" M 57 31 L 61 31" stroke-linejoin="bevel" stroke-miterlimit="10"/><path fill="" stroke="black" paint-order="fill stroke markers" d=" M 57 10 L 61 10" stroke-linejoin="bevel" stroke-miterlimit="10"/><g transform="translate(50,551) rotate(0,0,0)"><text fill="" stroke="none" font-family="helvetica" font-size="8pt" font-style="normal" font-weight="normal" text-decoration="normal" x="0" y="0" text-anchor="end" dominant-baseline="central">0.000e+0</text><g transform="rotate(0,0,0) translate(-50,-551) translate(50,447) rotate(0,0,0)"><text fill="" stroke="none" font-family="helvetica" font-size="8pt" font-style="normal" font-weight="normal" text-decoration="normal" x="0" y="0" text-anchor="end" dominant-baseline="central">2.000e-4</text><g transform="rotate(0,0,0) translate(-50,-447) translate(50,343) rotate(0,0,0)"><text fill="" stroke="none" font-family="helvetica" font-size="8pt" font-style="normal" font-weight="normal" text-decoration="normal" x="0" y="0" text-anchor="end" dominant-baseline="central">4.000e-4</text><g transform="rotate(0,0,0) translate(-50,-343) translate(50,239) rotate(0,0,0)"><text fill="" stroke="none" font-family="helvetica" font-size="8pt" font-style="normal" font-weight="normal" text-decoration="normal" x="0" y="0" text-anchor="end" dominant-baseline="central">6.000e-4</text><g transform="rotate(0,0,0) translate(-50,-239) translate(50,135) rotate(0,0,0)"><text fill="" stroke="none" font-family="helvetica" font-size="8pt" font-style="normal" font-weight="normal" text-decoration="normal" x="0" y="0" text-anchor="end" dominant-baseline="central">8.000e-4</text><g transform="rotate(0,0,0) translate(-50,-135) translate(50,31) rotate(0,0,0)"><text fill="" stroke="none" font-family="helvetica" font-size="8pt" font-style="normal" font-weight="normal" text-decoration="normal" x="0" y="0" text-anchor="end" dominant-baseline="central">1.000e-3</text><g transform="rotate(0,0,0) translate(-50,-31)"/></g></g></g></g></g></g></g></g><g clip-path="url(#MMhkaxbwlvKf)"><g/></g></g></g></svg>